<?xml version="1.0" encoding="UTF-8" standalone="no"?>
<!-- Created with Inkscape (http://www.inkscape.org/) -->

<svg
   xmlns:dc="http://purl.org/dc/elements/1.1/"
   xmlns:cc="http://creativecommons.org/ns#"
   xmlns:rdf="http://www.w3.org/1999/02/22-rdf-syntax-ns#"
   xmlns:svg="http://www.w3.org/2000/svg"
   xmlns="http://www.w3.org/2000/svg"
   xmlns:sodipodi="http://sodipodi.sourceforge.net/DTD/sodipodi-0.dtd"
   xmlns:inkscape="http://www.inkscape.org/namespaces/inkscape"
   width="210mm"
   height="297mm"
   viewBox="0 0 744.09448819 1052.3622047"
   id="svg2"
   version="1.1"
   inkscape:version="0.91 r13725"
   inkscape:export-filename="/home/dusan/Desktop/asdf.png"
   inkscape:export-xdpi="89.300003"
   inkscape:export-ydpi="89.300003"
   sodipodi:docname="drawing.svg">
  <defs
     id="defs4" />
  <sodipodi:namedview
     id="base"
     pagecolor="#ffffff"
     bordercolor="#666666"
     borderopacity="1.0"
     inkscape:pageopacity="0.0"
     inkscape:pageshadow="2"
     inkscape:zoom="0.7"
     inkscape:cx="329.81669"
     inkscape:cy="645.63283"
     inkscape:document-units="px"
     inkscape:current-layer="layer1"
     showgrid="false"
     inkscape:window-width="1366"
     inkscape:window-height="711"
     inkscape:window-x="0"
     inkscape:window-y="27"
     inkscape:window-maximized="1" />
  <metadata
     id="metadata7">
    <rdf:RDF>
      <cc:Work
         rdf:about="">
        <dc:format>image/svg+xml</dc:format>
        <dc:type
           rdf:resource="http://purl.org/dc/dcmitype/StillImage" />
        <dc:title></dc:title>
      </cc:Work>
    </rdf:RDF>
  </metadata>
  <g
     inkscape:label="Layer 1"
     inkscape:groupmode="layer"
     id="layer1">
    <rect
       style="fill:none;fill-opacity:1;stroke:#e74c3c;stroke-width:2;stroke-miterlimit:4;stroke-dasharray:none;stroke-opacity:0.94117647"
       id="rect4136"
       width="72.225906"
       height="84.852814"
       x="249.61685"
       y="497.65976" />
    <text
       xml:space="preserve"
       style="font-style:normal;font-weight:normal;font-size:11.38891315px;line-height:125%;font-family:sans-serif;letter-spacing:0px;word-spacing:0px;fill:#e74c3c;fill-opacity:1;stroke:none;stroke-width:1px;stroke-linecap:butt;stroke-linejoin:miter;stroke-opacity:1"
       x="261.69592"
       y="578.57098"
       id="text4178"
       sodipodi:linespacing="125%"><tspan
         sodipodi:role="line"
         id="tspan4180"
         x="261.69592"
         y="578.57098"
         style="fill:#e74c3c;fill-opacity:1">Image A</tspan></text>
    <path
       style="fill:none;fill-rule:evenodd;stroke:#e74c3c;stroke-width:1px;stroke-linecap:butt;stroke-linejoin:miter;stroke-opacity:0.94117647"
       d="m 249.74313,568.4967 c 72.09963,0 72.2259,0.25253 72.2259,0.25253 z"
       id="path4190"
       inkscape:connector-curvature="0" />
    <circle
       style="fill:none;fill-opacity:1;stroke:#3498db;stroke-width:1.63786829;stroke-miterlimit:4;stroke-dasharray:none;stroke-opacity:1"
       id="path4208"
       cx="403.6651"
       cy="553.72321"
       r="47.153156" />
    <text
       xml:space="preserve"
       style="font-style:normal;font-weight:normal;font-size:15.60634232px;line-height:125%;font-family:sans-serif;letter-spacing:0px;word-spacing:0px;fill:#3498db;fill-opacity:1;stroke:none;stroke-width:1px;stroke-linecap:butt;stroke-linejoin:miter;stroke-opacity:1"
       x="371.50861"
       y="573.50775"
       id="text4210"
       sodipodi:linespacing="125%"><tspan
         sodipodi:role="line"
         id="tspan4212"
         x="371.50861"
         y="573.50775"
         style="fill:#3498db;fill-opacity:1">Image B</tspan></text>
    <path
       style="fill:none;fill-rule:evenodd;stroke:#3498db;stroke-width:1.01767504px;stroke-linecap:butt;stroke-linejoin:miter;stroke-opacity:1"
       d="m 357.93823,539.09716 90.99034,0 z"
       id="path4214"
       inkscape:connector-curvature="0" />
    <path
       style="fill:none;fill-rule:evenodd;stroke:#3498db;stroke-width:1px;stroke-linecap:butt;stroke-linejoin:miter;stroke-opacity:1"
       d="m 410.35714,522.36221 c -0.23809,-0.0595 -0.46886,-0.17857 -0.71428,-0.17857 -0.0595,0 0,0.11904 0,0.17857 0,0.11904 0,0.23809 0,0.35714 0,0.0595 0,0.11905 0,0.17857 0,0.0595 -0.0421,0.13648 0,0.17857 0.0421,0.0421 0.12533,-0.0266 0.17857,0 0.0753,0.0376 0.10328,0.14093 0.17857,0.17857 0.0532,0.0266 0.11905,0 0.17857,0 0.0595,0 0.12533,0.0266 0.17857,0 0.33298,-0.16649 0.25478,-0.63808 0,-0.89285 -0.17354,-0.17354 -0.46886,-0.17857 -0.71428,-0.17857 -0.0595,0 0.0266,0.12533 0,0.17857 -0.0376,0.0753 -0.14093,0.10328 -0.17857,0.17857 -0.0266,0.0532 0,0.11905 0,0.17857 0,0.0595 -0.0266,0.12533 0,0.17857 0.0376,0.0753 0.11904,0.11905 0.17857,0.17857 0.0595,0.0595 0.10328,0.14093 0.17857,0.17857 0.0543,0.0272 0.45529,0 0.53571,0 0.0595,0 0.11905,0 0.17858,0 0.0595,0 0.12533,0.0266 0.17857,0 0.0753,-0.0376 0.20983,-0.10041 0.17857,-0.17857 -0.27571,-0.68926 -0.56039,-0.88669 -1.25,-0.71428 -0.0578,0.0144 0,0.11904 0,0.17857 0,0.0595 0,0.11905 0,0.17857 0,0.0804 -0.0272,0.48137 0,0.53571 0.0376,0.0753 0.10328,0.14093 0.17857,0.17858 0.0152,0.008 0.69906,0.008 0.71429,0 0.56945,-0.28473 -0.33371,-0.76117 -0.17858,-1.07143 0.10648,-0.21296 0.71429,-0.2381 0.71429,0 0,0.23809 -0.50756,-0.11813 -0.71429,0 -0.2584,0.14766 -0.42518,0.43795 -0.53571,0.71428 -0.0313,0.0782 0.11905,0.11905 0.17857,0.17857 0.0595,0.0595 0.14093,0.10328 0.17857,0.17858 0.0266,0.0532 -0.0421,0.13648 0,0.17857 0.006,0.006 0.49241,0 0.53572,0 0.0595,0 0.13648,0.0421 0.17857,0 0.0421,-0.0421 -0.0266,-0.12534 0,-0.17857 0.0376,-0.0753 0.14092,-0.10328 0.17857,-0.17858 0.0532,-0.10648 -0.0532,-0.25066 0,-0.35714 0.0376,-0.0753 0.17857,-0.0944 0.17857,-0.17857 0,-0.0842 -0.14092,-0.10328 -0.17857,-0.17857 -0.0266,-0.0532 0,-0.11905 0,-0.17857 0,-0.0595 0.0595,-0.17857 0,-0.17857 -0.48643,0 -1.14441,0.3354 -1.42857,0.71428 -0.0505,0.0673 0.14092,0.10328 0.17857,0.17857 0.0266,0.0532 -0.0421,0.13648 0,0.17857 0.0421,0.0421 0.13648,-0.0421 0.17857,0 0.0421,0.0421 -0.0421,0.13649 0,0.17858 0.0421,0.0421 0.13648,-0.0421 0.17857,0 0.0421,0.0421 -0.0421,0.13648 0,0.17857 0.0421,0.0421 0.11905,0 0.17857,0 0.0595,0 0.12534,0.0266 0.17858,0 0.0753,-0.0376 0.11904,-0.11905 0.17857,-0.17857 0.0595,-0.0595 0.14092,-0.10328 0.17857,-0.17858 0.0266,-0.0532 -0.0266,-0.12533 0,-0.17857 0.0376,-0.0753 0.14092,-0.10328 0.17857,-0.17857 0.0266,-0.0532 0,-0.11905 0,-0.17857 0,-0.0595 0.0532,-0.15195 0,-0.17857 -0.72173,-0.36087 -0.97871,-0.21405 -1.42857,0.53571 -0.0433,0.0722 0.14092,0.10328 0.17857,0.17857 0,0.47619 -0.0595,-0.0595 0.17857,0.17858 0.0421,0.0421 -0.0421,0.13648 0,0.17857 0.0421,0.0421 0.11905,0 0.17857,0 0.0595,0 0.11905,0 0.17857,0 0.0595,0 0.12534,0.0266 0.17858,0 0.0474,-0.0237 0.512,-0.48831 0.53571,-0.53572 0.0354,-0.0708 -0.0365,-0.49921 0,-0.53571 0.0421,-0.0421 0.17857,-0.0595 0.17857,0 0,0.0595 -0.13648,0.0421 -0.17857,0 -0.0421,-0.0421 0.0578,-0.16414 0,-0.17857 -0.23099,-0.0577 -0.51618,-0.13207 -0.71429,0 -0.22149,0.14766 -0.25828,0.46712 -0.35714,0.71428 -0.0221,0.0553 0,0.11905 0,0.17857 0,0.0595 -0.0421,0.13649 0,0.17858 0.0421,0.0421 0.12533,-0.0266 0.17857,0 0.0753,0.0376 0.10328,0.14092 0.17857,0.17857 0.0532,0.0266 0.11905,0 0.17858,0 0.0595,0 0.12533,0.0266 0.17857,0 0.0753,-0.0376 0.10328,-0.14093 0.17857,-0.17857 0.0532,-0.0266 0.13648,0.0421 0.17857,0 0.0421,-0.0421 -0.0266,-0.12534 0,-0.17858 0.0376,-0.0753 0.14093,-0.10328 0.17857,-0.17857 0.0183,-0.0366 0.0252,-0.51053 0,-0.53571 -0.0421,-0.0421 -0.1202,0.0117 -0.17857,0 -1.042,-0.2084 -0.41943,-0.326 -1.42857,0.17857"
       id="path4222"
       inkscape:connector-curvature="0" />
    <path
       style="fill:none;fill-rule:evenodd;stroke:#3498db;stroke-width:1px;stroke-linecap:butt;stroke-linejoin:miter;stroke-opacity:1"
       d="m 411.25,518.79078 c 0.2381,0.11905 0.47619,0.23809 0.71429,0.35714 0.0595,0.0595 0.10853,0.13188 0.17857,0.17857 0.11074,0.0738 0.26303,0.0845 0.35714,0.17857 0.43372,0.43372 -0.0531,0.26222 0.35714,0.53572 0.11075,0.0738 0.26303,0.0844 0.35715,0.17857 0.0941,0.0941 0.10474,0.2464 0.17857,0.35714 0.0467,0.07 0.14092,0.10328 0.17857,0.17857 0.0266,0.0532 -0.0188,0.12211 0,0.17858 0.0421,0.12626 0.13648,0.23087 0.17857,0.35714 0.0376,0.11294 0,0.23809 0,0.35714"
       id="path4228"
       inkscape:connector-curvature="0" />
    <path
       style="fill:none;fill-rule:evenodd;stroke:#3498db;stroke-width:1px;stroke-linecap:butt;stroke-linejoin:miter;stroke-opacity:1"
       d="m 393.39286,534.68364 c 0.53003,0.0971 0.9444,-0.27645 1.42857,-0.35715 0.17614,-0.0294 0.35894,0.0253 0.53571,0 0.48592,-0.0694 0.94152,-0.29626 1.42858,-0.35714 0.47251,-0.0591 0.95605,0.0591 1.42857,0 0.24352,-0.0304 0.47133,-0.14386 0.71428,-0.17857 0.63273,-0.0904 0.56644,0.0809 1.25,0.17857 0.17678,0.0252 0.35715,0 0.53572,0 0.47619,0 0.95238,0 1.42857,0 0.11905,0 0.24041,-0.0234 0.35714,0 0.18458,0.0369 0.35114,0.14166 0.53572,0.17857 0.11673,0.0234 0.23809,0 0.35714,0 0.23809,0 0.47619,0 0.71428,0 0.65477,0 1.30953,0 1.96429,0"
       id="path4252"
       inkscape:connector-curvature="0" />
    <path
       style="fill:none;fill-rule:evenodd;stroke:#3498db;stroke-width:1px;stroke-linecap:butt;stroke-linejoin:miter;stroke-opacity:1"
       d="m 392.32143,522.89792 c -0.0595,0.2381 -0.17857,0.46886 -0.17857,0.71429 0,0.0595 0.12533,-0.0266 0.17857,0 0.1452,0.0726 0.14775,0.28326 0.35714,0.17857 0.0753,-0.0376 0.10328,-0.14093 0.17857,-0.17857 0.24632,-0.12316 0.15973,0.21626 0.35715,-0.17857 0.0266,-0.0532 -0.0421,-0.13649 0,-0.17858 0.0421,-0.0421 0.13648,0.0421 0.17857,0 0.0893,-0.0893 -0.0893,-0.44642 0,-0.53571 0.0421,-0.0421 0.17857,0.0595 0.17857,0 0,-0.0842 -0.14093,-0.10328 -0.17857,-0.17857 0,-0.47619 0.0595,0.0595 -0.17857,-0.17857 -0.0421,-0.0421 0.0421,-0.13649 0,-0.17857 -0.0421,-0.0421 -0.11905,0 -0.17857,0 -0.33651,0 -0.84127,-0.0476 -0.71429,0.71428 0.064,0.38376 0.60541,0.35714 0.89286,0.35714 0.0595,0 0.12533,0.0266 0.17857,0 0.74317,-0.37158 -0.1909,0.0123 0.17857,-0.35714 0.0421,-0.0421 0.13648,0.0421 0.17857,0 0.0421,-0.0421 0,-0.11905 0,-0.17857 0,-0.0595 0.0266,-0.12533 0,-0.17857 -0.0376,-0.0753 -0.10328,-0.14093 -0.17857,-0.17857 -0.008,-0.004 -0.53135,-0.003 -0.53571,0 -0.25521,0.15312 -0.63253,0.24954 -0.71429,0.53571 -0.2428,0.84981 0.52287,0.71429 0.89286,0.71429 0.0595,0 0.11904,0 0.17857,0 0.0595,0 0.13648,0.0421 0.17857,0 0.0421,-0.0421 -0.0266,-0.12534 0,-0.17857 0.0376,-0.0753 0.14093,-0.10328 0.17857,-0.17858 0.0532,-0.10648 -0.0842,-0.27296 0,-0.35714 0.0421,-0.0421 0.17857,0.0595 0.17857,0 0,-0.0842 -0.14092,-0.10328 -0.17857,-0.17857 -0.0532,-0.10648 0.0842,-0.27296 0,-0.35714 -0.0421,-0.0421 -0.12533,0.0266 -0.17857,0 -0.0753,-0.0376 -0.10328,-0.14093 -0.17857,-0.17857 -0.0532,-0.0266 -0.11905,0 -0.17857,0 -0.0595,0 -0.11905,0 -0.17857,0 -0.42567,0 -0.71429,-0.1011 -0.71429,0.71428 0,0.76753 0.17676,0.71429 0.53571,0.71429 0.0595,0 0.13649,-0.0421 0.17858,0 0.0421,0.0421 -0.0595,0.17857 0,0.17857 0.0842,0 0.10327,-0.14093 0.17857,-0.17857 0.0532,-0.0266 0.13648,0.0421 0.17857,0 0.0842,-0.0842 -0.0532,-0.25067 0,-0.35715 0.0376,-0.0753 0.14092,-0.10328 0.17857,-0.17857 0.0266,-0.0532 0,-0.11905 0,-0.17857 0,-0.0595 0.0266,-0.12533 0,-0.17857 -0.0237,-0.0474 -0.4883,-0.51201 -0.53571,-0.53571 -0.0532,-0.0266 -0.11905,0 -0.17858,0 -0.0595,0 -0.11904,0 -0.17857,0 -0.0595,0 -0.15195,-0.0532 -0.17857,0 -0.10976,0.21951 -0.11905,0.47619 -0.17857,0.71428 -0.0595,0.2381 -0.17857,0.46886 -0.17857,0.71429 0,0.25358 0.40875,0.17857 0.53571,0.17857 0.34241,0 0.27647,0.0807 0.53572,-0.17857 0.0595,-0.0595 0.14092,-0.10328 0.17857,-0.17857 0.0532,-0.10648 -0.0532,-0.25067 0,-0.35715 0.0376,-0.0753 0.14092,-0.10328 0.17857,-0.17857 0.1047,-0.20939 -0.10597,-0.21194 -0.17857,-0.35714 -0.0266,-0.0532 0.0421,-0.13648 0,-0.17857 -0.0421,-0.0421 -0.11905,0 -0.17857,0 -0.35647,0 -0.72959,-0.0357 -0.89286,0.53571 -0.0731,0.25596 0.19742,0.50133 0.35714,0.71429 0.0357,0.0476 0.11905,0 0.17857,0 0.0595,0 0.11905,0 0.17858,0 0.43503,0 0.0663,-0.13252 0.17857,-0.35715 0.0376,-0.0753 0.14092,-0.10328 0.17857,-0.17857 0.005,-0.009 0.005,-0.52637 0,-0.53571 -0.0376,-0.0753 -0.10328,-0.14093 -0.17857,-0.17857 -0.31044,-0.15522 -0.58242,0.69093 -0.89286,0.53571 -0.2381,-0.11905 0.29258,-0.45603 0.35714,-0.71428 0.0144,-0.0578 -0.15195,-0.0532 -0.17857,0 -0.10976,0.21951 -0.0924,0.48448 -0.17857,0.71428 -0.12853,0.34274 -0.62957,0.66736 -0.17857,0.89286 0.009,0.005 0.52637,0.005 0.53571,0 0.0474,-0.0237 0.51201,-0.4883 0.53572,-0.53572 0.0266,-0.0532 -0.0421,-0.13648 0,-0.17857 0.0421,-0.0421 0.13648,0.0421 0.17857,0 0.006,-0.006 0,-0.4924 0,-0.53571 0,-0.0595 0,-0.11905 0,-0.17857 0,-0.0595 0.0421,-0.13649 0,-0.17857 -0.007,-0.007 -0.64871,0 -0.71429,0 -0.0595,0 -0.15195,-0.0532 -0.17857,0 -0.10976,0.21951 -0.11905,0.47619 -0.17857,0.71428 z"
       id="path4254"
       inkscape:connector-curvature="0" />
    <path
       style="fill:none;fill-rule:evenodd;stroke:#3498db;stroke-width:1px;stroke-linecap:butt;stroke-linejoin:miter;stroke-opacity:1"
       d="m 389.82143,521.29078 c 0.17857,-0.2381 0.35714,-0.47619 0.53571,-0.71429 0.0595,0 0.13649,0.0421 0.17858,0 0.0421,-0.0421 -0.0266,-0.12533 0,-0.17857 0.0369,-0.0739 0.46002,-0.48525 0.53571,-0.53571 0.0899,-0.39343 0.36736,-0.0944 0.53571,-0.17857 0.15059,-0.0753 0.19743,-0.30391 0.35715,-0.35715 0.8129,0 0.0102,0.0842 0.53571,-0.17857 0.11601,-0.058 0.77959,0.0566 0.89286,0 0.0753,-0.0376 0.10328,-0.14092 0.17857,-0.17857 0.0543,-0.0272 0.45529,0 0.53571,0"
       id="path4256"
       inkscape:connector-curvature="0" />
    <path
       style="fill:none;fill-rule:evenodd;stroke:#e74c3c;stroke-width:1px;stroke-linecap:butt;stroke-linejoin:miter;stroke-opacity:0.94117647"
       d="m 268.93603,517.8628 c 0.36282,-0.60107 0.37469,-0.50508 0,-0.50508 -0.0421,0 -0.0965,-0.0298 -0.12627,0 -0.0298,0.0298 0.0298,0.0965 0,0.12627 -0.0298,0.0298 -0.13958,-0.0399 -0.12627,0 0.048,0.14397 0.11163,0.32245 0.25254,0.37881 0.45113,0.18045 0.3788,-0.19638 0.3788,-0.37881 0,-0.0421 0.0188,-0.0886 0,-0.12627 -0.0266,-0.0532 -0.073,-0.0996 -0.12627,-0.12627 -0.0376,-0.0188 -0.0842,0 -0.12627,0 -0.0421,0 -0.0842,0 -0.12626,0 -0.0421,0 -0.0965,-0.0298 -0.12627,0 -0.0298,0.0298 0.0298,0.0965 0,0.12627 -0.0298,0.0298 -0.0965,-0.0298 -0.12627,0 -0.0298,0.0298 -0.0188,0.0886 0,0.12627 0.0679,0.13574 0.11163,0.32245 0.25254,0.37881 0.12357,0.0494 0.26806,-0.0524 0.3788,-0.12627 0.035,-0.0233 0,-0.0842 0,-0.12627 0,-0.0421 0,-0.0842 0,-0.12627 0,-0.0421 0.0298,-0.0965 0,-0.12627 -0.002,-0.002 -0.50507,-0.0586 -0.50507,0.12627 0,0.1331 0.12627,0.24571 0.12627,0.37881 0,0.17354 -0.12627,0.33154 -0.12627,0.50508 0,0.0421 0.0842,0 0.12627,0 0.0421,0 0.0842,0 0.12626,0 0.0421,0 0.0886,0.0188 0.12627,0 0.0532,-0.0266 0.0842,-0.0842 0.12627,-0.12627 0.0421,-0.0421 0.0997,-0.073 0.12627,-0.12627 0.0192,-0.0384 0,-0.32194 0,-0.37881 0,-0.0421 0.0298,-0.0965 0,-0.12627 -0.0298,-0.0298 -0.0886,-0.0188 -0.12627,0 -0.13573,0.0679 -0.3788,0.10078 -0.3788,0.25254 0,0.15176 0.27149,0.14523 0.3788,0.25254 0.0298,0.0298 -0.0298,0.0965 0,0.12627 0.0298,0.0298 0.0965,0.0298 0.12627,0 0.0298,-0.0298 -0.0298,-0.0965 0,-0.12627 0.0298,-0.0298 0.0965,0.0298 0.12627,0 0.0298,-0.0298 0,-0.0842 0,-0.12627 0,-0.0421 0,-0.0842 0,-0.12627 0,-0.0569 0.0192,-0.34038 0,-0.37881 -0.0266,-0.0532 -0.0842,-0.0842 -0.12627,-0.12627 -0.0421,-0.0421 -0.073,-0.0996 -0.12627,-0.12627 -0.007,-0.003 -0.3722,-0.003 -0.3788,0 -0.26933,0.13467 -0.0524,0.44783 0,0.63135 0.0477,0.16686 0.004,0.38236 0.12626,0.50508 0.0666,0.0666 0.16326,-0.0965 0.25254,-0.12627 0.0399,-0.0133 0.0965,0.0298 0.12627,0 0.0298,-0.0298 -0.0188,-0.0886 0,-0.12627 0.41878,-0.41878 -0.0595,0.11905 0.12627,-0.25254 0.0266,-0.0532 0.0996,-0.073 0.12627,-0.12627 0.0188,-0.0376 0,-0.0842 0,-0.12627 0,-0.0421 0.0298,-0.0965 0,-0.12627 -0.0298,-0.0298 -0.0965,0.0298 -0.12627,0 -0.0298,-0.0298 0.0298,-0.0965 0,-0.12627 -0.0298,-0.0298 -0.0886,0.0188 -0.12627,0 -0.0532,-0.0266 -0.073,-0.0996 -0.12627,-0.12627 -0.0384,-0.0192 -0.32194,0 -0.3788,0 -0.0421,0 -0.0965,-0.0298 -0.12627,0 -0.0298,0.0298 0.0188,0.0886 0,0.12627 -0.0266,0.0532 -0.14071,0.0685 -0.12627,0.12627 0.0368,0.14723 0.16836,0.25254 0.25254,0.37881 z"
       id="path4268"
       inkscape:connector-curvature="0" />
    <path
       style="fill:none;fill-rule:evenodd;stroke:#e74c3c;stroke-width:1px;stroke-linecap:butt;stroke-linejoin:miter;stroke-opacity:0.94117647"
       d="m 265.14795,516.34757 c 0.19245,-0.21682 0.31842,-0.76128 0.50508,-1.01015 0.0714,-0.0952 0.18111,-0.1573 0.25254,-0.25254 0.0565,-0.0753 0.0698,-0.17725 0.12627,-0.25254 0.0809,-0.10785 0.42418,-0.39722 0.50507,-0.50507 0.0565,-0.0753 0.0597,-0.18599 0.12627,-0.25254 0.0666,-0.0666 0.17725,-0.0698 0.25254,-0.12627 0.0952,-0.0714 0.16836,-0.16836 0.25254,-0.25254 0.0421,-0.0421 0.073,-0.0996 0.12627,-0.12627 0.0376,-0.0188 0.0886,0.0188 0.12627,0 0.31206,-0.15603 -0.0436,-0.12627 0.25253,-0.12627"
       id="path4270"
       inkscape:connector-curvature="0" />
    <path
       style="fill:none;fill-rule:evenodd;stroke:#e74c3c;stroke-width:1px;stroke-linecap:butt;stroke-linejoin:miter;stroke-opacity:0.94117647"
       d="m 296.96776,516.97892 c -0.16836,0.0842 -0.35449,0.1396 -0.50508,0.25253 -0.0337,0.0253 0,0.0842 0,0.12627 0,0.0421 -0.0188,0.0886 0,0.12627 0.0963,0.19256 0.33182,0.12627 0.50508,0.12627 0.0421,0 0.0965,0.0298 0.12627,0 0.0298,-0.0298 0.008,-0.085 0,-0.12627 -0.034,-0.17017 0.0473,-0.50507 -0.12627,-0.50507 -0.21045,0 -0.30065,0.30968 -0.37881,0.50507 -0.0751,0.18768 0.23016,0.10389 0.25254,0.12627 0.0298,0.0298 -0.0298,0.0965 0,0.12627 0.0298,0.0298 0.0842,0 0.12627,0 0.0421,0 0.0842,0 0.12627,0 0.0421,0 0.0842,0 0.12627,0 0.0421,0 0.0886,0.0188 0.12627,0 0.0532,-0.0266 0.073,-0.0996 0.12626,-0.12627 0.0376,-0.0188 0.0965,0.0298 0.12627,0 0.0298,-0.0298 -0.0188,-0.0886 0,-0.12627 0.0513,-0.10267 0.2003,-0.10447 0.12627,-0.25254 -0.0266,-0.0532 -0.0996,-0.073 -0.12627,-0.12626 -0.0188,-0.0376 0.0298,-0.0965 0,-0.12627 -0.0298,-0.0298 -0.0842,0 -0.12627,0 -0.0421,0 -0.0842,0 -0.12626,0 -0.12627,0 -0.27375,-0.07 -0.37881,0 -0.17511,0.11673 -0.24734,0.34074 -0.37881,0.50507 -0.0372,0.0465 -0.12627,0.0667 -0.12627,0.12627 0,0.0595 0.0996,0.073 0.12627,0.12627 0.0188,0.0376 -0.0188,0.0886 0,0.12627 0.0266,0.0532 0.073,0.0996 0.12627,0.12627 0.007,0.003 0.3722,0.003 0.37881,0 0.0532,-0.0266 0.073,-0.0996 0.12627,-0.12627 0.17417,-0.0871 0.11294,0.15292 0.25253,-0.12627 0.0188,-0.0376 -0.0188,-0.0886 0,-0.12627 0.0266,-0.0532 0.0996,-0.073 0.12627,-0.12627 0.0188,-0.0376 -0.0188,-0.0886 0,-0.12627 0.0266,-0.0532 0.0996,-0.073 0.12627,-0.12627 0.003,-0.007 0.003,-0.3722 0,-0.3788 -0.078,-0.15603 -0.12191,-0.12627 -0.25254,-0.12627 -0.21426,0 -0.32115,-0.0234 -0.50507,0.25254 -0.0963,0.14439 -0.0922,0.3349 -0.12627,0.50507 -0.008,0.0413 -0.0298,0.0965 0,0.12627 0.0298,0.0298 0.0965,-0.0298 0.12627,0 0.0298,0.0298 -0.0298,0.0965 0,0.12627 0.0298,0.0298 0.0842,0 0.12627,0 0.066,0 0.47187,0.0166 0.50507,0 0.0532,-0.0266 0.0996,-0.073 0.12627,-0.12627 0.0376,-0.0753 -0.0595,-0.19301 0,-0.25254 0.0298,-0.0298 0.0965,0.0298 0.12627,0 0.0987,-0.0987 -0.10983,-0.21966 -0.12627,-0.25253 -0.0188,-0.0376 0.0298,-0.0965 0,-0.12627 -0.0298,-0.0298 -0.0886,0.0188 -0.12627,0 -0.0532,-0.0266 -0.073,-0.0996 -0.12627,-0.12627 -0.0376,-0.0188 -0.0854,-0.0102 -0.12626,0 -0.4877,0.12192 -0.41783,0.0975 -0.63135,0.63134 -0.0156,0.0391 0,0.0842 0,0.12627 0,0.0421 -0.0298,0.0965 0,0.12627 0.0595,0.0595 0.17725,-0.0376 0.25254,0 0.0532,0.0266 0.0667,0.12627 0.12627,0.12627 0.0421,0 -0.0298,-0.0965 0,-0.12627 0.0595,-0.0595 0.19301,0.0595 0.25254,0 0.0298,-0.0298 -0.0188,-0.0886 0,-0.12627 0.0266,-0.0532 0.0996,-0.073 0.12626,-0.12627 0.0188,-0.0376 -0.0188,-0.0886 0,-0.12627 0.0266,-0.0532 0.0996,-0.073 0.12627,-0.12627 0.0188,-0.0376 0,-0.0842 0,-0.12626 0,-0.0421 0.0298,-0.0965 0,-0.12627 -0.0298,-0.0298 -0.0842,0 -0.12627,0 -0.0421,0 -0.0842,0 -0.12626,0 -0.12627,0 -0.25254,0 -0.37881,0 z"
       id="path4272"
       inkscape:connector-curvature="0" />
    <path
       style="fill:none;fill-rule:evenodd;stroke:#e74c3c;stroke-width:1px;stroke-linecap:butt;stroke-linejoin:miter;stroke-opacity:0.94117647"
       d="m 297.5991,512.93831 c 1.16044,1.16043 0.0594,0.16584 0.75762,0.63134 0.0495,0.033 0.0842,0.0842 0.12627,0.12627 0.0421,0.0421 0.0933,0.0767 0.12627,0.12627 0.0522,0.0783 0.0597,0.18599 0.12627,0.25254 0.0666,0.0666 0.17422,0.0741 0.25253,0.12627 0.0519,0.0346 0.34423,0.32693 0.37881,0.3788 0.0522,0.0783 0.0741,0.17423 0.12627,0.25254 0.033,0.0495 0.0996,0.073 0.12627,0.12627 0.0188,0.0376 0,0.0842 0,0.12627 0,0.0842 -0.0266,0.17268 0,0.25254 0.0188,0.0565 0.0996,0.073 0.12627,0.12627 0.0397,0.0794 -0.0397,0.42571 0,0.50507 0.0266,0.0532 0.0996,0.073 0.12627,0.12627 0.0188,0.0376 0,0.0842 0,0.12627 0,0.0421 0,0.0842 0,0.12627"
       id="path4274"
       inkscape:connector-curvature="0" />
    <path
       style="fill:none;fill-rule:evenodd;stroke:#e74c3c;stroke-width:1px;stroke-linecap:butt;stroke-linejoin:miter;stroke-opacity:0.94117647"
       d="m 271.96648,548.04111 c 3.33564,-0.006 6.67247,0.013 10.00721,-0.0106 1.15088,-0.1996 2.32007,-0.0454 3.47158,-0.23184 1.14812,-0.0461 2.30238,0.074 3.44127,-0.13635 0.92791,-0.0207 1.86282,0.0813 2.77792,-0.12627 1.20233,0.0744 2.3677,-0.27797 3.53553,-0.50508 0.70308,0.0307 1.57218,-0.045 2.27547,0.01"
       id="path4280"
       inkscape:connector-curvature="0"
       sodipodi:nodetypes="ccccccc" />
    <path
       sodipodi:type="star"
       style="fill:none;fill-opacity:1;stroke:#2c3e50;stroke-width:2;stroke-miterlimit:4;stroke-dasharray:none;stroke-opacity:1"
       id="path4283"
       sodipodi:sides="5"
       sodipodi:cx="681.3479"
       sodipodi:cy="569.50928"
       sodipodi:r1="50.165543"
       sodipodi:r2="40.584778"
       sodipodi:arg1="1.0079281"
       sodipodi:arg2="1.6362466"
       inkscape:flatsided="true"
       inkscape:rounded="0"
       inkscape:randomized="0"
       d="m 708.11694,611.93568 -58.84686,-3.85705 -14.51641,-57.15859 49.87524,-31.4689 45.34099,37.70975 z"
       inkscape:transform-center-x="-0.059309983"
       inkscape:transform-center-y="-4.7339381"
       transform="matrix(0.99810183,-0.06158515,0.06158515,0.99810183,-193.78,20.184795)" />
    <text
       xml:space="preserve"
       style="font-style:normal;font-weight:normal;font-size:15.19307041px;line-height:125%;font-family:sans-serif;letter-spacing:0px;word-spacing:0px;fill:#2c3e50;fill-opacity:1;stroke:none;stroke-width:1px;stroke-linecap:butt;stroke-linejoin:miter;stroke-opacity:1"
       x="498.07706"
       y="567.3855"
       id="text4285"
       sodipodi:linespacing="125%"
       transform="matrix(0.99989447,0.01452735,-0.01452735,0.99989447,0,0)"><tspan
         sodipodi:role="line"
         id="tspan4287"
         x="498.07706"
         y="567.3855">Image C</tspan></text>
    <path
       style="fill:none;fill-rule:evenodd;stroke:#2c3e50;stroke-width:1px;stroke-linecap:butt;stroke-linejoin:miter;stroke-opacity:1"
       d="m 483.57143,559.86221 c 75.35714,0 75.71429,0.35714 75.71429,0.35714 z"
       id="path4289"
       inkscape:connector-curvature="0" />
    <path
       style="fill:none;fill-rule:evenodd;stroke:#2c3e50;stroke-width:1px;stroke-linecap:butt;stroke-linejoin:miter;stroke-opacity:1"
       d="m 503.67022,529.85836 c -0.12627,0.16836 -0.28469,0.31685 -0.3788,0.50508 -0.0376,0.0753 -0.0204,0.17087 0,0.25254 0.0205,0.0819 0.32516,0.67714 0.3788,0.75761 0.0231,0.0347 0.3522,0.36994 0.37881,0.37881 0.0799,0.0266 0.16836,0 0.25254,0 0.23569,0 0.34697,-0.0944 0.50507,-0.25254 0.0421,-0.0421 0.0933,-0.0767 0.12627,-0.12627 0.0522,-0.0783 0.0842,-0.16836 0.12627,-0.25254 0.0421,-0.0842 0.10345,-0.16123 0.12627,-0.25254 0.0306,-0.1225 0,-0.25253 0,-0.3788 0,-0.18069 0.0595,-0.28591 -0.12627,-0.37881 -0.0376,-0.0188 -0.0886,0.0188 -0.12627,0 -0.0532,-0.0266 -0.0698,-0.10745 -0.12627,-0.12627 -0.15971,-0.0532 -0.3384,0.0238 -0.50507,0 -0.21246,-0.0303 -0.44731,-0.23669 -0.63135,-0.12627 -0.14436,0.0866 0.0625,0.34876 0,0.50508 -0.0349,0.0874 -0.18599,0.0597 -0.25253,0.12627 -0.0666,0.0666 -0.0842,0.16836 -0.12627,0.25253 -0.0421,0.0842 -0.0842,0.16836 -0.12627,0.25254 -0.0421,0.0842 -0.10345,0.16124 -0.12627,0.25254 -0.0204,0.0817 0,0.16836 0,0.25254 0,0.0842 -0.0204,0.17087 0,0.25254 0.0643,0.25727 0.26324,0.42446 0.50507,0.50507 0.0399,0.0133 0.0842,0 0.12627,0 0.0842,0 0.17088,0.0204 0.25254,0 0.0913,-0.0228 0.16836,-0.0842 0.25254,-0.12627 0.0842,-0.0421 0.17423,-0.0741 0.25254,-0.12626 0.0495,-0.033 0.0842,-0.0842 0.12627,-0.12627 0.31908,-0.31909 0.1993,-0.14606 0.3788,-0.50508 0.0421,-0.0842 0.10345,-0.16123 0.12627,-0.25254 0.0204,-0.0817 0,-0.16836 0,-0.25254 0,-0.0842 0,-0.16836 0,-0.25253 0,-0.0421 0,-0.0842 0,-0.12627 0,-0.0421 0.0188,-0.0886 0,-0.12627 -0.0266,-0.0532 -0.0842,-0.0842 -0.12627,-0.12627 -0.0421,-0.0421 -0.073,-0.0996 -0.12627,-0.12627 -0.0376,-0.0188 -0.0886,0.0188 -0.12626,0 -0.0532,-0.0266 -0.073,-0.0996 -0.12627,-0.12627 -0.12387,-0.0619 -0.18409,0.0578 -0.25254,0.12627 -0.0421,0.0421 -0.0996,0.073 -0.12627,0.12627 -0.0188,0.0376 0.0133,0.0863 0,0.12627 -0.0298,0.0893 -0.12627,0.15842 -0.12627,0.25254 0,0.0595 0.0996,0.073 0.12627,0.12626 0.0188,0.0376 -0.0188,0.0886 0,0.12627 0.0168,0.0335 0.34528,0.36205 0.37881,0.37881 0.0354,0.0177 0.46964,0.0177 0.50507,0 0.0335,-0.0168 0.36205,-0.34528 0.37881,-0.37881 0.0188,-0.0376 0,-0.0842 0,-0.12627 0,-0.0421 0.0188,-0.0886 0,-0.12626 -0.0266,-0.0532 -0.0996,-0.073 -0.12627,-0.12627 -0.18151,-0.36302 0.44352,0.21149 -0.25254,-0.25254 -0.0495,-0.033 -0.0698,-0.10745 -0.12627,-0.12627 -0.18849,-0.0628 -0.44019,0.0546 -0.63134,0 -0.21794,-0.0623 -0.42862,-0.3539 -0.63135,-0.25254 -0.15522,0.0776 0.12627,0.33154 0.12627,0.50508 0,0.0595 -0.0996,0.073 -0.12627,0.12627 -0.0188,0.0376 0,0.0842 0,0.12627 0,0.31703 0.005,0.38333 0.25254,0.63134 0.0421,0.0421 0.0698,0.10745 0.12627,0.12627 0.0799,0.0266 0.17268,-0.0266 0.25254,0 0.18069,0.0602 0.0493,0.19401 0.25254,0.12627 0.22933,-0.0765 0.23433,-0.10807 0.3788,-0.25254 0.0421,-0.0421 0.0996,-0.073 0.12627,-0.12627 0.0188,-0.0376 -0.0188,-0.0886 0,-0.12627 0.10451,-0.209 0.24123,-0.0339 0.12627,-0.3788 -0.0188,-0.0565 -0.0996,-0.073 -0.12627,-0.12627 -0.0188,-0.0376 0.0188,-0.0886 0,-0.12627 -0.0266,-0.0532 -0.0842,-0.0842 -0.12627,-0.12627 -0.0421,-0.0421 -0.0767,-0.0932 -0.12627,-0.12627 -0.0783,-0.0522 -0.17422,-0.0741 -0.25253,-0.12627 -0.0495,-0.033 -0.073,-0.0996 -0.12627,-0.12627 -0.0376,-0.0188 -0.0842,0 -0.12627,0 -0.0421,0 -0.0842,0 -0.12627,0 -0.16836,0 -0.42978,-0.15058 -0.50508,0 -0.0842,0.16836 0.18263,0.33031 0.25254,0.50508 0.0156,0.0391 0,0.0842 0,0.12627 0.0421,0.0842 0.0741,0.17423 0.12627,0.25253 0.11581,0.17371 0.1948,0.12987 0.37881,0.25254 0.0495,0.033 0.0698,0.10745 0.12627,0.12627 0.11979,0.0399 0.25253,0 0.3788,0 0.0421,0 0.0842,0 0.12627,0 0.0421,0 0.0886,0.0188 0.12627,0 0.11558,-0.0578 0.22178,-0.28653 0.25254,-0.37881 0.0133,-0.0399 0.0188,-0.0886 0,-0.12626 -0.0226,-0.0452 -0.45257,-0.47007 -0.50508,-0.50508 -0.0783,-0.0522 -0.16325,-0.0965 -0.25253,-0.12627 -0.10829,-0.0361 -0.37692,0.0256 -0.50508,0 -0.17017,-0.034 -0.36624,-0.23039 -0.50508,-0.12627 -0.13468,0.10102 0,0.33672 0,0.50508 0,0.0421 0.0188,0.0886 0,0.12627 -0.0723,0.14455 -0.18549,0.0749 -0.12627,0.25253 0.0298,0.0893 0.0965,0.16326 0.12627,0.25254 0.0133,0.0399 -0.0133,0.0863 0,0.12627 0.0308,0.0923 0.13696,0.32102 0.25254,0.37881 0.0376,0.0188 0.0886,-0.0188 0.12627,0 0.0532,0.0266 0.073,0.0996 0.12627,0.12627 0.007,0.003 0.3722,0.003 0.37881,0 0.0532,-0.0266 0.073,-0.0996 0.12627,-0.12627 0.0376,-0.0188 0.0965,0.0298 0.12626,0 0.0298,-0.0298 0,-0.0842 0,-0.12627 0,-0.0842 0,-0.16836 0,-0.25254 0,-0.12627 0.0399,-0.25902 0,-0.37881 -0.0188,-0.0565 -0.0996,-0.073 -0.12626,-0.12626 -0.1555,-0.311 0.36652,0.11398 -0.12627,-0.37881 -0.0298,-0.0298 -0.0863,0.0133 -0.12627,0 -0.0893,-0.0298 -0.16836,-0.0842 -0.25254,-0.12627 -0.16836,-0.0842 -0.32651,-0.31206 -0.50508,-0.25254 -0.17857,0.0595 -0.16836,0.33672 -0.25253,0.50508 -0.0421,0.0842 -0.0965,0.16325 -0.12627,0.25254 -0.0114,0.0342 -0.005,0.61706 0,0.63134 0.0414,0.12408 0.3125,0.20834 0.3788,0.25254 0.0495,0.033 0.0768,0.0933 0.12627,0.12627 0.0783,0.0522 0.16325,0.0965 0.25254,0.12627 0.0399,0.0133 0.0842,0 0.12627,0 0.0842,0 0.17268,0.0266 0.25254,0 0.0565,-0.0188 0.0767,-0.0933 0.12627,-0.12627 0.18401,-0.12267 0.263,-0.0788 0.3788,-0.25254 0.0522,-0.0783 0.10345,-0.16123 0.12627,-0.25254 0.004,-0.0147 0.004,-0.61906 0,-0.63134 -0.0188,-0.0565 -0.0842,-0.0842 -0.12627,-0.12627 -0.0421,-0.0421 -0.0842,-0.0842 -0.12627,-0.12627 -0.0842,-0.0842 -0.15348,-0.1865 -0.25253,-0.25254 -0.25345,-0.16897 -0.57729,-0.24124 -0.88389,-0.12627 -0.0883,0.0331 -0.7386,0.66938 -0.63134,0.88388 0.0337,0.0674 0.31233,0.31234 0.37881,0.37881"
       id="path4297"
       inkscape:connector-curvature="0" />
    <path
       style="fill:none;fill-rule:evenodd;stroke:#2c3e50;stroke-width:1px;stroke-linecap:butt;stroke-linejoin:miter;stroke-opacity:1"
       d="m 532.71211,529.47955 c -0.16836,0.0421 -0.34395,0.0618 -0.50508,0.12627 -0.26174,0.1047 -0.0515,0.10305 -0.12627,0.25254 -0.0532,0.10648 -0.21489,0.1396 -0.25253,0.25254 -0.0266,0.0799 0,0.16836 0,0.25254 0,0.0842 0,0.16836 0,0.25254 0,0.32507 -0.0277,0.57587 0.12626,0.88388 0.0266,0.0532 0.0933,0.0767 0.12627,0.12627 0.0442,0.0663 0.12846,0.33745 0.25254,0.37881 0.0799,0.0266 0.16836,0 0.25254,0 0.0421,0 0.0886,0.0188 0.12627,0 0.0532,-0.0266 0.0767,-0.0933 0.12627,-0.12627 0.0783,-0.0522 0.18599,-0.0597 0.25254,-0.12627 0.0666,-0.0666 0.0842,-0.16836 0.12627,-0.25254 0.0421,-0.0842 0.10344,-0.16123 0.12626,-0.25254 0.0204,-0.0817 -0.0204,-0.17087 0,-0.25254 0.0228,-0.0913 0.0965,-0.16325 0.12627,-0.25254 0.0464,-0.13921 -0.0374,-0.41622 -0.12627,-0.50507 -0.0298,-0.0298 -0.0965,0.0298 -0.12626,0 -0.0298,-0.0298 0.0298,-0.0965 0,-0.12627 -0.0298,-0.0298 -0.0842,0 -0.12627,0 -0.0421,0 -0.0842,0 -0.12627,0 -0.0421,0 -0.0886,-0.0188 -0.12627,0 -0.27919,0.13959 -0.0392,0.0784 -0.12627,0.25254 -0.0266,0.0532 -0.10745,0.0698 -0.12627,0.12627 -0.0266,0.0799 0,0.16836 0,0.25253 0,0.0421 -0.0188,0.0886 0,0.12627 0.26275,0.52551 -0.009,-0.13498 0.25254,0.12627 0.0298,0.0298 -0.0298,0.0965 0,0.12627 0.0987,0.0987 0.21966,-0.10983 0.25254,-0.12627 0.0376,-0.0188 0.0886,0.0188 0.12627,0 0.24017,-0.12009 0.0609,-0.309 0.12626,-0.50507 0.0411,-0.12321 0.20756,-0.09 0.12627,-0.25254 -0.0266,-0.0532 -0.0996,-0.073 -0.12627,-0.12627 -0.0376,-0.0753 0.0595,-0.19302 0,-0.25254 -0.0298,-0.0298 -0.0842,0 -0.12626,0 -0.0421,0 -0.0965,-0.0298 -0.12627,0 -0.0595,0.0595 0.0266,0.17268 0,0.25254 -0.0298,0.0893 -0.0965,0.16325 -0.12627,0.25254 -0.0133,0.0399 0,0.0842 0,0.12627 0,0.0842 0,0.16836 0,0.25253 0,0.20676 0.0458,0.25254 0.25254,0.25254 0.0421,0 0.0965,0.0298 0.12626,0 0.0298,-0.0298 0,-0.0842 0,-0.12627 0,-0.0421 0.0188,-0.0886 0,-0.12627 -0.0266,-0.0532 -0.0996,-0.073 -0.12626,-0.12626 -0.0188,-0.0376 0.0188,-0.0886 0,-0.12627 -0.0266,-0.0532 -0.0842,-0.0842 -0.12627,-0.12627 -0.0421,-0.0421 -0.0667,-0.12627 -0.12627,-0.12627 -0.0421,0 0,0.0842 0,0.12627 0,0.0421 0,0.0842 0,0.12627 0,0.0306 0.004,0.37474 0,0.3788 -0.0298,0.0298 -0.0965,-0.0298 -0.12627,0 -0.0298,0.0298 0.0421,0.12627 0,0.12627 -0.0421,0 0.0188,-0.0886 0,-0.12627 -0.0266,-0.0532 -0.0842,-0.0842 -0.12627,-0.12627 -0.0421,-0.0421 -0.10745,-0.0698 -0.12627,-0.12626 -0.0266,-0.0799 0,-0.16836 0,-0.25254 0,-0.0421 0.0188,-0.0886 0,-0.12627 -0.0266,-0.0532 -0.10745,-0.0698 -0.12627,-0.12627 -0.0518,-0.15532 0.0466,-0.63135 0.25254,-0.63135 0.0797,0 0.30695,0.34183 0.25254,0.50508 -0.0298,0.0893 -0.10345,0.16123 -0.12627,0.25254 -0.10934,0.43736 0.15989,0.0758 -0.12627,0.50507 -0.033,0.0495 -0.0996,0.073 -0.12627,0.12627 -0.0376,0.0753 0.0376,0.17725 0,0.25254 -0.0266,0.0532 -0.0667,0.12627 -0.12627,0.12627 -0.0421,0 0,-0.0842 0,-0.12627 0,-0.0569 -0.0192,-0.34038 0,-0.37881 0.0266,-0.0532 0.0996,-0.073 0.12627,-0.12626 0.0188,-0.0376 -0.0188,-0.0886 0,-0.12627 0.0971,-0.19427 0.33336,-0.12627 0.50508,-0.12627 0.0421,0 0.0842,0 0.12627,0 0.0421,0 0.0886,-0.0188 0.12626,0 0.0532,0.0266 0.073,0.0996 0.12627,0.12627 0.0376,0.0188 0.0965,-0.0298 0.12627,0 0.0298,0.0298 0.0298,0.0965 0,0.12627 -0.0298,0.0298 -0.0842,0 -0.12627,0 -0.066,0 -0.47187,0.0166 -0.50507,0 -0.0532,-0.0266 -0.0996,-0.073 -0.12627,-0.12627 -0.0376,-0.0753 0.0595,-0.19302 0,-0.25254 -0.0298,-0.0298 -0.0965,0.0298 -0.12627,0 -0.12719,-0.12719 0.17904,-0.16773 0.12627,-0.37881 -0.0323,-0.12912 -0.20613,-0.27233 -0.12627,-0.37881 0.10412,-0.13883 0.34395,-0.0618 0.50508,-0.12627 0.39007,-0.15603 -0.0988,-0.12626 0.25253,-0.12626"
       id="path4301"
       inkscape:connector-curvature="0" />
    <path
       style="fill:none;fill-rule:evenodd;stroke:#2c3e50;stroke-width:1px;stroke-linecap:butt;stroke-linejoin:miter;stroke-opacity:1"
       d="m 508.84726,546.52588 c 0.16835,0.12627 0.31164,0.29591 0.50507,0.37881 0.11606,0.0497 0.25381,-0.0179 0.37881,0 0.98423,0.1406 -1.8e-4,0.13887 1.13642,0.25253 0.2094,0.0209 0.42194,-0.0209 0.63135,0 0.21355,0.0214 0.41761,0.10684 0.63134,0.12627 0.2515,0.0229 0.50595,-0.021 0.75762,0 0.25513,0.0213 0.50234,0.10664 0.75761,0.12627 0.29376,0.0226 0.58926,0 0.88388,0 0.71553,0 1.43105,0 2.14658,0 0.25254,0 0.50595,-0.021 0.75761,0 0.25514,0.0213 0.50248,0.10501 0.75762,0.12627 0.25166,0.021 0.50507,0 0.75761,0 0.7997,0 1.59941,0 2.39911,0 0.75762,0 1.51523,0 2.27285,0 0.21044,0 0.42176,-0.0191 0.63134,0 0.25497,0.0232 0.50248,0.10501 0.75762,0.12627 0.25166,0.021 0.50507,0 0.75761,0 0.4209,0 0.84179,0 1.26269,0 0.21045,0 0.42194,-0.0209 0.63135,0 0.21355,0.0213 0.41779,0.10491 0.63134,0.12627 0.20941,0.0209 0.4209,0 0.63135,0 0.21045,0 0.42089,0 0.63134,0 0.25254,0 0.50633,-0.0251 0.75762,0 0.17268,0.0173 0.33259,0.1071 0.50507,0.12627 0.37649,0.0418 0.76054,-0.047 1.13642,0 0.1722,0.0215 0.33288,0.10474 0.50508,0.12627 0.16706,0.0209 0.33672,0 0.50508,0 0.16836,0 0.33671,0 0.50507,0 0.12627,0 0.25254,0 0.37881,0 0.0842,0 0.17087,0.0204 0.25254,0 0.0913,-0.0228 0.16325,-0.0965 0.25254,-0.12627 0.0399,-0.0133 0.12627,-0.0421 0.12627,0 0,0.0421 -0.0842,0 -0.12627,0 -0.1858,0 -0.0965,0.0298 -0.25254,-0.12627"
       id="path4305"
       inkscape:connector-curvature="0" />
    <path
       style="fill:none;fill-rule:evenodd;stroke:#2c3e50;stroke-width:1px;stroke-linecap:butt;stroke-linejoin:miter;stroke-opacity:1"
       d="m 501.01857,527.83806 c -0.12627,-0.16836 -0.27053,-0.32462 -0.3788,-0.50508 -0.0433,-0.0722 0.0376,-0.17725 0,-0.25254 -0.0266,-0.0532 -0.0996,-0.073 -0.12627,-0.12627 -0.0376,-0.0753 0.0376,-0.17724 0,-0.25254 -0.0266,-0.0532 -0.16836,-0.0842 -0.12627,-0.12626 0.0421,-0.0421 0.0996,0.073 0.12627,0.12626 0.0188,0.0376 -0.0188,0.0886 0,0.12627 0.0758,0.15153 0.30304,0.22729 0.3788,0.37881 0.0188,0.0376 -0.0298,0.0965 0,0.12627 0.0298,0.0298 0.11606,-0.0408 0.12627,0 0.0408,0.16333 -0.16836,0.50508 0,0.50508 0.70325,0 0.15597,-0.43821 0.25254,-0.63135 0.0266,-0.0532 0.10745,-0.0698 0.12627,-0.12627 0.0266,-0.0799 -0.0204,-0.17087 0,-0.25254 0.0228,-0.0913 0.0965,-0.16325 0.12627,-0.25253 0.0244,-0.0731 0,-0.39566 0,-0.50508 0,-0.0421 0,-0.0842 0,-0.12627 0,-0.0421 -0.0298,-0.0965 0,-0.12627 0.12295,-0.12295 0.30666,0.21647 0.37881,0.25254 0.0376,0.0188 0.0965,-0.0298 0.12627,0 0.0298,0.0298 -0.0298,0.0965 0,0.12627 0.0126,0.0126 0.36618,0.0126 0.3788,0 0.0595,-0.0595 -0.0595,-0.19302 0,-0.25254 0.0298,-0.0298 0.0965,0.0298 0.12627,0 0.0298,-0.0298 -0.0298,-0.0965 0,-0.12627 0.0298,-0.0298 0.0886,0.0188 0.12627,0 0.0532,-0.0266 0.073,-0.0996 0.12627,-0.12627 0.16258,-0.0813 0.12933,0.0852 0.25254,0.12627 0.0799,0.0266 0.17268,-0.0266 0.25254,0 0.0565,0.0188 0.073,0.0996 0.12627,0.12627 0.0141,0.007 0.61725,0.007 0.63134,0 0.14476,-0.0724 0.17564,-0.26346 0.25254,-0.37881 0.033,-0.0495 0.0933,-0.0767 0.12627,-0.12627 0.0522,-0.0783 0.0741,-0.17423 0.12627,-0.25253 0.0383,-0.0575 0.46426,-0.48468 0.50507,-0.50508 0.0376,-0.0188 0.0863,0.0133 0.12627,0 0.17857,-0.0595 0.33672,-0.16836 0.50508,-0.25254 0.24927,-0.12463 0.51871,-0.23547 0.75761,-0.37881 0.76186,-0.45711 0.0541,-0.0902 0.63135,-0.3788"
       id="path4333"
       inkscape:connector-curvature="0" />
    <path
       style="fill:none;fill-rule:evenodd;stroke:#2c3e50;stroke-width:1px;stroke-linecap:butt;stroke-linejoin:miter;stroke-opacity:1"
       d="m 530.43927,525.31267 c 0.16835,-0.0421 0.3349,-0.0922 0.50507,-0.12626 0.0825,-0.0165 0.17725,0.0376 0.25254,0 0.0532,-0.0266 0.0668,-0.12627 0.12627,-0.12627 0.0595,0 0.0842,0.0842 0.12627,0.12627 0.12835,0.12835 0.20157,0.17495 0.25254,0.3788 0.051,0.20417 -0.0413,0.42499 0,0.63135 0.0185,0.0923 0.0965,0.16325 0.12627,0.25254 0.0554,0.16623 -0.0967,0.26732 0.12626,0.3788 0.0376,0.0188 0.0842,0 0.12627,0 0.0421,0 0.0886,0.0188 0.12627,0 0.0532,-0.0266 0.0842,-0.0842 0.12627,-0.12627 0.0421,-0.0421 0.0933,-0.0767 0.12627,-0.12626 0.0522,-0.0783 0.0741,-0.17423 0.12627,-0.25254 0.0357,-0.0535 0.32656,-0.35269 0.37881,-0.37881 0.12386,-0.0619 0.18409,0.0578 0.25254,0.12627 0.0421,0.0421 0.0996,0.073 0.12626,0.12627 0.0871,0.17417 -0.15291,0.11294 0.12627,0.25254 0.0376,0.0188 0.0842,0 0.12627,0 0.0421,0 0.0965,0.0298 0.12627,0 0.0298,-0.0298 -0.0298,-0.0965 0,-0.12627 0.0298,-0.0298 0.0886,0.0188 0.12627,0 0.0532,-0.0266 0.073,-0.0996 0.12627,-0.12627 0.0376,-0.0188 0.0965,0.0298 0.12627,0 0.0561,-0.0561 -0.0982,-0.23851 0.12627,-0.12627 0.24787,0.12393 0.0568,0.23996 0.12627,0.37881 0.0266,0.0532 0.0996,0.073 0.12627,0.12627 0.0188,0.0376 -0.0298,0.0965 0,0.12626 0.0298,0.0298 0.0842,0 0.12627,0 0.29612,0 -0.0595,0.0298 0.25253,-0.12626 0.0376,-0.0188 0.0886,0.0188 0.12627,0 0.0702,-0.0351 0.21183,-0.25254 0.25254,-0.25254 0.0595,0 0.0842,0.0842 0.12627,0.12627 0.0421,0.0421 0.0996,0.073 0.12627,0.12627 0.0188,0.0376 -0.0188,0.0886 0,0.12626 0.0266,0.0532 0.0996,0.073 0.12627,0.12627 0.0188,0.0376 -0.0188,0.0886 0,0.12627 0.0266,0.0532 0.073,0.0996 0.12627,0.12627 0.0376,0.0188 0.0842,0 0.12627,0 0.12626,0 0.25901,0.0399 0.3788,0 0.0565,-0.0188 0.0698,-0.10744 0.12627,-0.12627 0.0799,-0.0266 0.17268,0.0266 0.25254,0 0.0565,-0.0188 0.0842,-0.0842 0.12627,-0.12627 0.0421,-0.0421 0.0842,-0.0842 0.12627,-0.12627"
       id="path4335"
       inkscape:connector-curvature="0" />
    <rect
       style="fill:none;fill-opacity:1;stroke:#e74c3c;stroke-width:1.21066844;stroke-miterlimit:4;stroke-dasharray:none;stroke-opacity:0.94117647"
       id="rect4136-3"
       width="43.720814"
       height="51.364315"
       x="228.26151"
       y="389.65018" />
    <text
       xml:space="preserve"
       style="font-style:normal;font-weight:normal;font-size:6.89409924px;line-height:125%;font-family:sans-serif;letter-spacing:0px;word-spacing:0px;fill:#e74c3c;fill-opacity:1;stroke:none;stroke-width:1px;stroke-linecap:butt;stroke-linejoin:miter;stroke-opacity:1"
       x="230.01755"
       y="439.13354"
       id="text4178-6"
       sodipodi:linespacing="125%"><tspan
         sodipodi:role="line"
         id="tspan4180-7"
         x="230.01755"
         y="439.13354"
         style="fill:#e74c3c;fill-opacity:1">Container 1</tspan></text>
    <path
       style="fill:none;fill-rule:evenodd;stroke:#e74c3c;stroke-width:0.60533422px;stroke-linecap:butt;stroke-linejoin:miter;stroke-opacity:0.94117647"
       d="m 228.33797,432.53017 c 43.64437,0 43.72081,0.15287 43.72081,0.15287 z"
       id="path4190-5"
       inkscape:connector-curvature="0" />
    <path
       style="fill:none;fill-rule:evenodd;stroke:#e74c3c;stroke-width:0.60533422px;stroke-linecap:butt;stroke-linejoin:miter;stroke-opacity:0.94117647"
       d="m 239.95609,401.87974 c 0.21962,-0.36385 0.22681,-0.30574 0,-0.30574 -0.0255,0 -0.0584,-0.018 -0.0764,0 -0.018,0.018 0.018,0.0584 0,0.0764 -0.018,0.018 -0.0845,-0.0242 -0.0764,0 0.0291,0.0871 0.0676,0.19519 0.15288,0.22931 0.27308,0.10923 0.2293,-0.11888 0.2293,-0.22931 0,-0.0255 0.0114,-0.0536 0,-0.0764 -0.0161,-0.0322 -0.0442,-0.0603 -0.0764,-0.0764 -0.0228,-0.0114 -0.051,0 -0.0764,0 -0.0255,0 -0.051,0 -0.0764,0 -0.0255,0 -0.0584,-0.018 -0.0764,0 -0.018,0.018 0.018,0.0584 0,0.0764 -0.018,0.018 -0.0584,-0.018 -0.0764,0 -0.018,0.018 -0.0114,0.0536 0,0.0764 0.0411,0.0822 0.0676,0.19519 0.15288,0.22931 0.0748,0.0299 0.16226,-0.0317 0.2293,-0.0764 0.0212,-0.0141 0,-0.051 0,-0.0764 0,-0.0255 0,-0.051 0,-0.0764 0,-0.0255 0.018,-0.0584 0,-0.0764 -0.001,-0.001 -0.30574,-0.0355 -0.30574,0.0764 0,0.0806 0.0764,0.14874 0.0764,0.22931 0,0.10505 -0.0764,0.20069 -0.0764,0.30574 0,0.0255 0.051,0 0.0764,0 0.0255,0 0.051,0 0.0764,0 0.0255,0 0.0536,0.0114 0.0764,0 0.0322,-0.0161 0.051,-0.051 0.0764,-0.0764 0.0255,-0.0255 0.0604,-0.0442 0.0764,-0.0764 0.0116,-0.0232 0,-0.19488 0,-0.22931 0,-0.0255 0.018,-0.0584 0,-0.0764 -0.018,-0.018 -0.0536,-0.0114 -0.0764,0 -0.0822,0.0411 -0.2293,0.061 -0.2293,0.15287 0,0.0919 0.16434,0.0879 0.2293,0.15287 0.018,0.018 -0.018,0.0584 0,0.0764 0.018,0.018 0.0584,0.018 0.0764,0 0.018,-0.018 -0.018,-0.0584 0,-0.0764 0.018,-0.018 0.0584,0.018 0.0764,0 0.018,-0.018 0,-0.051 0,-0.0764 0,-0.0255 0,-0.051 0,-0.0764 0,-0.0344 0.0116,-0.20604 0,-0.22931 -0.0161,-0.0322 -0.051,-0.051 -0.0764,-0.0764 -0.0255,-0.0255 -0.0442,-0.0603 -0.0764,-0.0764 -0.004,-0.002 -0.22531,-0.002 -0.2293,0 -0.16304,0.0815 -0.0317,0.27109 0,0.38218 0.0289,0.10101 0.002,0.23145 0.0764,0.30574 0.0403,0.0403 0.0988,-0.0584 0.15287,-0.0764 0.0242,-0.008 0.0584,0.018 0.0764,0 0.018,-0.018 -0.0114,-0.0536 0,-0.0764 0.2535,-0.2535 -0.036,0.0721 0.0764,-0.15287 0.0161,-0.0322 0.0603,-0.0442 0.0764,-0.0764 0.0114,-0.0228 0,-0.051 0,-0.0764 0,-0.0255 0.018,-0.0584 0,-0.0764 -0.018,-0.018 -0.0584,0.018 -0.0764,0 -0.018,-0.018 0.018,-0.0584 0,-0.0764 -0.018,-0.018 -0.0536,0.0114 -0.0764,0 -0.0322,-0.0161 -0.0442,-0.0603 -0.0764,-0.0764 -0.0232,-0.0116 -0.19489,0 -0.2293,0 -0.0255,0 -0.0584,-0.018 -0.0764,0 -0.018,0.018 0.0114,0.0536 0,0.0764 -0.0161,0.0322 -0.0852,0.0415 -0.0764,0.0764 0.0223,0.0891 0.10192,0.15287 0.15288,0.22931 z"
       id="path4268-3"
       inkscape:connector-curvature="0" />
    <path
       style="fill:none;fill-rule:evenodd;stroke:#e74c3c;stroke-width:0.60533422px;stroke-linecap:butt;stroke-linejoin:miter;stroke-opacity:0.94117647"
       d="m 256.92465,401.3447 c -0.10191,0.051 -0.21458,0.0845 -0.30574,0.15286 -0.0204,0.0153 0,0.051 0,0.0764 0,0.0255 -0.0114,0.0536 0,0.0764 0.0583,0.11657 0.20086,0.0764 0.30574,0.0764 0.0255,0 0.0584,0.018 0.0764,0 0.018,-0.018 0.005,-0.0515 0,-0.0764 -0.0206,-0.10301 0.0286,-0.30573 -0.0764,-0.30573 -0.12739,0 -0.18199,0.18746 -0.22931,0.30573 -0.0455,0.11361 0.13933,0.0629 0.15288,0.0764 0.018,0.018 -0.018,0.0584 0,0.0764 0.018,0.018 0.051,0 0.0764,0 0.0255,0 0.051,0 0.0764,0 0.0255,0 0.051,0 0.0764,0 0.0255,0 0.0536,0.0114 0.0764,0 0.0322,-0.0161 0.0442,-0.0603 0.0764,-0.0764 0.0228,-0.0114 0.0584,0.018 0.0764,0 0.018,-0.018 -0.0114,-0.0536 0,-0.0764 0.0311,-0.0622 0.12125,-0.0632 0.0764,-0.15287 -0.0161,-0.0322 -0.0603,-0.0442 -0.0764,-0.0764 -0.0114,-0.0228 0.018,-0.0584 0,-0.0764 -0.018,-0.018 -0.051,0 -0.0764,0 -0.0255,0 -0.051,0 -0.0764,0 -0.0764,0 -0.16571,-0.0424 -0.22931,0 -0.106,0.0707 -0.14972,0.20626 -0.22931,0.30573 -0.0225,0.0281 -0.0764,0.0404 -0.0764,0.0764 0,0.036 0.0603,0.0442 0.0764,0.0764 0.0114,0.0228 -0.0114,0.0536 0,0.0764 0.0161,0.0322 0.0442,0.0603 0.0764,0.0764 0.004,0.002 0.22531,0.002 0.22931,0 0.0322,-0.0161 0.0442,-0.0603 0.0764,-0.0764 0.10543,-0.0527 0.0684,0.0926 0.15287,-0.0764 0.0114,-0.0228 -0.0114,-0.0536 0,-0.0764 0.0161,-0.0322 0.0603,-0.0442 0.0764,-0.0764 0.0114,-0.0228 -0.0114,-0.0536 0,-0.0764 0.0161,-0.0322 0.0603,-0.0442 0.0764,-0.0764 0.002,-0.004 0.002,-0.2253 0,-0.2293 -0.0472,-0.0944 -0.0738,-0.0764 -0.15287,-0.0764 -0.1297,0 -0.19441,-0.0142 -0.30574,0.15287 -0.0583,0.0874 -0.0558,0.20272 -0.0764,0.30573 -0.005,0.025 -0.018,0.0584 0,0.0764 0.018,0.018 0.0584,-0.018 0.0764,0 0.018,0.018 -0.018,0.0584 0,0.0764 0.018,0.018 0.051,0 0.0764,0 0.0399,0 0.28564,0.0101 0.30573,0 0.0322,-0.0161 0.0603,-0.0442 0.0764,-0.0764 0.0228,-0.0456 -0.036,-0.11684 0,-0.15287 0.018,-0.018 0.0584,0.018 0.0764,0 0.0598,-0.0598 -0.0665,-0.13297 -0.0764,-0.15287 -0.0114,-0.0228 0.018,-0.0584 0,-0.0764 -0.018,-0.018 -0.0536,0.0114 -0.0764,0 -0.0322,-0.0161 -0.0442,-0.0603 -0.0764,-0.0764 -0.0228,-0.0114 -0.0517,-0.006 -0.0764,0 -0.29522,0.0738 -0.25293,0.059 -0.38218,0.38217 -0.009,0.0237 0,0.051 0,0.0764 0,0.0255 -0.018,0.0584 0,0.0764 0.036,0.036 0.1073,-0.0228 0.15287,0 0.0322,0.0161 0.0404,0.0764 0.0764,0.0764 0.0255,0 -0.018,-0.0584 0,-0.0764 0.036,-0.036 0.11683,0.036 0.15287,0 0.018,-0.018 -0.0114,-0.0536 0,-0.0764 0.0161,-0.0322 0.0603,-0.0442 0.0764,-0.0764 0.0114,-0.0228 -0.0114,-0.0536 0,-0.0764 0.0161,-0.0322 0.0603,-0.0442 0.0764,-0.0764 0.0114,-0.0228 0,-0.051 0,-0.0764 0,-0.0255 0.018,-0.0584 0,-0.0764 -0.018,-0.018 -0.051,0 -0.0764,0 -0.0255,0 -0.051,0 -0.0764,0 -0.0764,0 -0.15287,0 -0.22931,0 z"
       id="path4272-6"
       inkscape:connector-curvature="0" />
    <path
       style="fill:none;fill-rule:evenodd;stroke:#e74c3c;stroke-width:0.60533422px;stroke-linecap:butt;stroke-linejoin:miter;stroke-opacity:0.94117647"
       d="m 241.79052,420.1477 c 1.54662,0.94113 3.48779,2.5838 5.56664,2.44936 0.69666,-0.12083 1.40442,-0.0275 2.10146,-0.14034 0.695,-0.0279 1.39371,0.0448 2.08312,-0.0825 0.5617,-0.0125 1.12763,0.0492 1.68157,-0.0764 1.50737,-0.69296 2.16938,-0.67291 4.00867,-2.7551"
       id="path4280-9"
       inkscape:connector-curvature="0"
       sodipodi:nodetypes="cccccc" />
    <path
       style="fill:none;fill-opacity:1;fill-rule:evenodd;stroke:#e84b3c;stroke-opacity:0.94117647"
       d="m 264.76915,441.09121 4.54568,57.57869"
       id="path4376"
       inkscape:connector-curvature="0" />
    <flowRoot
       xml:space="preserve"
       id="flowRoot4396"
       style="font-style:normal;font-weight:normal;font-size:40px;line-height:125%;font-family:sans-serif;letter-spacing:0px;word-spacing:0px;fill:#000000;fill-opacity:1;stroke:none;stroke-width:1px;stroke-linecap:butt;stroke-linejoin:miter;stroke-opacity:1"
       transform="translate(-160,-22.857143)"><flowRegion
         id="flowRegion4398"><rect
           id="rect4400"
           width="51.012703"
           height="41.416256"
           x="312.13715"
           y="357.37726" /></flowRegion><flowPara
         id="flowPara4402">as;ldjkf;lasjkdf</flowPara></flowRoot>    <text
       xml:space="preserve"
       style="font-style:normal;font-variant:normal;font-weight:normal;font-stretch:normal;font-size:8.52642632px;line-height:125%;font-family:Cretan;-inkscape-font-specification:Cretan;letter-spacing:0px;word-spacing:0px;fill:#000000;fill-opacity:1;stroke:none;stroke-width:1px;stroke-linecap:butt;stroke-linejoin:miter;stroke-opacity:1"
       x="187.19424"
       y="284.77377"
       id="text4404"
       sodipodi:linespacing="125%"
       transform="scale(0.80046556,1.249273)"><tspan
         sodipodi:role="line"
         x="187.19424"
         y="284.77377"
         id="tspan4408"
         style="font-style:normal;font-variant:normal;font-weight:normal;font-stretch:normal;font-family:Cretan;-inkscape-font-specification:Cretan">I'm instantiated from image A. </tspan><tspan
         sodipodi:role="line"
         x="187.19424"
         y="295.43179"
         id="tspan4418"
         style="font-style:normal;font-variant:normal;font-weight:normal;font-stretch:normal;font-family:Cretan;-inkscape-font-specification:Cretan">I love that I can change myself !</tspan></text>
    <text
       xml:space="preserve"
       style="font-style:normal;font-weight:normal;font-size:40px;line-height:125%;font-family:sans-serif;letter-spacing:0px;word-spacing:0px;fill:#000000;fill-opacity:1;stroke:none;stroke-width:1px;stroke-linecap:butt;stroke-linejoin:miter;stroke-opacity:1"
       x="228.15112"
       y="352.70285"
       id="text4412"
       sodipodi:linespacing="125%"><tspan
         sodipodi:role="line"
         id="tspan4414"
         x="228.15112"
         y="352.70285"></tspan><tspan
         sodipodi:role="line"
         x="228.15112"
         y="402.70285"
         id="tspan4416" /></text>
    <a
       id="a4470"
       transform="translate(-150.40355,-16.796228)">
      <path
         id="path4461"
         style="fill:none;fill-rule:evenodd;stroke:#000000;stroke-width:1px;stroke-linecap:butt;stroke-linejoin:miter;stroke-opacity:1"
         d="m 392.21708,386.65485 c 6.31021,-2.34944 8.20967,-14.8963 2.08175,-19.25446 -13.84681,-12.59622 -34.34469,-13.57162 -52.06445,-14.00781 -17.20647,0.96125 -37.0281,2.77132 -49.22266,16.47656 -5.0033,6.80926 0.63346,15.42108 7.01758,18.875 16.36171,8.85129 31.48726,9.69416 50.36392,8.22722 l 3.49905,0.18885 c 4.922,-0.83189 22.01075,18.67962 22.01075,18.67962 0,0 -11.93845,-17.28014 -7.44275,-20.89381 z"
         inkscape:connector-curvature="0"
         sodipodi:nodetypes="cccccccccc" />
    </a>
    <rect
       style="fill:none;fill-opacity:1;stroke:#e74c3c;stroke-width:1.21066844;stroke-miterlimit:4;stroke-dasharray:none;stroke-opacity:0.94117647"
       id="rect4136-3-9"
       width="43.720814"
       height="51.364315"
       x="280.78946"
       y="413.38873" />
    <text
       xml:space="preserve"
       style="font-style:normal;font-weight:normal;font-size:6.89409924px;line-height:125%;font-family:sans-serif;letter-spacing:0px;word-spacing:0px;fill:#e74c3c;fill-opacity:1;stroke:none;stroke-width:1px;stroke-linecap:butt;stroke-linejoin:miter;stroke-opacity:1"
       x="282.5455"
       y="462.8721"
       id="text4178-6-7"
       sodipodi:linespacing="125%"><tspan
         sodipodi:role="line"
         id="tspan4180-7-8"
         x="282.5455"
         y="462.8721"
         style="fill:#e74c3c;fill-opacity:1">Container 2</tspan></text>
    <path
       style="fill:none;fill-rule:evenodd;stroke:#e74c3c;stroke-width:0.60533422px;stroke-linecap:butt;stroke-linejoin:miter;stroke-opacity:0.94117647"
       d="m 280.86593,456.26873 c 43.64437,0 43.72081,0.15287 43.72081,0.15287 z"
       id="path4190-5-0"
       inkscape:connector-curvature="0" />
    <path
       style="fill:none;fill-rule:evenodd;stroke:#e74c3c;stroke-width:0.60533422px;stroke-linecap:butt;stroke-linejoin:miter;stroke-opacity:0.94117647"
       d="m 292.48405,425.6183 c 0.21962,-0.36385 0.22681,-0.30574 0,-0.30574 -0.0255,0 -0.0584,-0.018 -0.0764,0 -0.018,0.018 0.018,0.0584 0,0.0764 -0.018,0.018 -0.0845,-0.0242 -0.0764,0 0.0291,0.0871 0.0676,0.19519 0.15288,0.22931 0.27308,0.10923 0.2293,-0.11888 0.2293,-0.22931 0,-0.0255 0.0114,-0.0536 0,-0.0764 -0.0161,-0.0322 -0.0442,-0.0603 -0.0764,-0.0764 -0.0228,-0.0114 -0.051,0 -0.0764,0 -0.0255,0 -0.051,0 -0.0764,0 -0.0255,0 -0.0584,-0.018 -0.0764,0 -0.018,0.018 0.018,0.0584 0,0.0764 -0.018,0.018 -0.0584,-0.018 -0.0764,0 -0.018,0.018 -0.0114,0.0536 0,0.0764 0.0411,0.0822 0.0676,0.19519 0.15288,0.22931 0.0748,0.0299 0.16226,-0.0317 0.2293,-0.0764 0.0212,-0.0141 0,-0.051 0,-0.0764 0,-0.0255 0,-0.051 0,-0.0764 0,-0.0255 0.018,-0.0584 0,-0.0764 -0.001,-0.001 -0.30574,-0.0355 -0.30574,0.0764 0,0.0806 0.0764,0.14874 0.0764,0.22931 0,0.10505 -0.0764,0.20069 -0.0764,0.30574 0,0.0255 0.051,0 0.0764,0 0.0255,0 0.051,0 0.0764,0 0.0255,0 0.0536,0.0114 0.0764,0 0.0322,-0.0161 0.051,-0.051 0.0764,-0.0764 0.0255,-0.0255 0.0604,-0.0442 0.0764,-0.0764 0.0116,-0.0232 0,-0.19488 0,-0.22931 0,-0.0255 0.018,-0.0584 0,-0.0764 -0.018,-0.018 -0.0536,-0.0114 -0.0764,0 -0.0822,0.0411 -0.2293,0.061 -0.2293,0.15287 0,0.0919 0.16434,0.0879 0.2293,0.15287 0.018,0.018 -0.018,0.0584 0,0.0764 0.018,0.018 0.0584,0.018 0.0764,0 0.018,-0.018 -0.018,-0.0584 0,-0.0764 0.018,-0.018 0.0584,0.018 0.0764,0 0.018,-0.018 0,-0.051 0,-0.0764 0,-0.0255 0,-0.051 0,-0.0764 0,-0.0344 0.0116,-0.20604 0,-0.22931 -0.0161,-0.0322 -0.051,-0.051 -0.0764,-0.0764 -0.0255,-0.0255 -0.0442,-0.0603 -0.0764,-0.0764 -0.004,-0.002 -0.22531,-0.002 -0.2293,0 -0.16304,0.0815 -0.0317,0.27109 0,0.38218 0.0289,0.10101 0.002,0.23145 0.0764,0.30574 0.0403,0.0403 0.0988,-0.0584 0.15287,-0.0764 0.0242,-0.008 0.0584,0.018 0.0764,0 0.018,-0.018 -0.0114,-0.0536 0,-0.0764 0.2535,-0.2535 -0.036,0.0721 0.0764,-0.15287 0.0161,-0.0322 0.0603,-0.0442 0.0764,-0.0764 0.0114,-0.0228 0,-0.051 0,-0.0764 0,-0.0255 0.018,-0.0584 0,-0.0764 -0.018,-0.018 -0.0584,0.018 -0.0764,0 -0.018,-0.018 0.018,-0.0584 0,-0.0764 -0.018,-0.018 -0.0536,0.0114 -0.0764,0 -0.0322,-0.0161 -0.0442,-0.0603 -0.0764,-0.0764 -0.0232,-0.0116 -0.19489,0 -0.2293,0 -0.0255,0 -0.0584,-0.018 -0.0764,0 -0.018,0.018 0.0114,0.0536 0,0.0764 -0.0161,0.0322 -0.0852,0.0415 -0.0764,0.0764 0.0223,0.0891 0.10192,0.15287 0.15288,0.22931 z"
       id="path4268-3-1"
       inkscape:connector-curvature="0" />
    <path
       style="fill:none;fill-rule:evenodd;stroke:#e74c3c;stroke-width:0.60533422px;stroke-linecap:butt;stroke-linejoin:miter;stroke-opacity:0.94117647"
       d="m 309.45261,425.08326 c -0.10191,0.051 -0.21458,0.0845 -0.30574,0.15286 -0.0204,0.0153 0,0.051 0,0.0764 0,0.0255 -0.0114,0.0536 0,0.0764 0.0583,0.11657 0.20086,0.0764 0.30574,0.0764 0.0255,0 0.0584,0.018 0.0764,0 0.018,-0.018 0.005,-0.0515 0,-0.0764 -0.0206,-0.10301 0.0286,-0.30573 -0.0764,-0.30573 -0.12739,0 -0.18199,0.18746 -0.22931,0.30573 -0.0455,0.11361 0.13933,0.0629 0.15288,0.0764 0.018,0.018 -0.018,0.0584 0,0.0764 0.018,0.018 0.051,0 0.0764,0 0.0255,0 0.051,0 0.0764,0 0.0255,0 0.051,0 0.0764,0 0.0255,0 0.0536,0.0114 0.0764,0 0.0322,-0.0161 0.0442,-0.0603 0.0764,-0.0764 0.0228,-0.0114 0.0584,0.018 0.0764,0 0.018,-0.018 -0.0114,-0.0536 0,-0.0764 0.0311,-0.0622 0.12125,-0.0632 0.0764,-0.15287 -0.0161,-0.0322 -0.0603,-0.0442 -0.0764,-0.0764 -0.0114,-0.0228 0.018,-0.0584 0,-0.0764 -0.018,-0.018 -0.051,0 -0.0764,0 -0.0255,0 -0.051,0 -0.0764,0 -0.0764,0 -0.16571,-0.0424 -0.22931,0 -0.106,0.0707 -0.14972,0.20626 -0.22931,0.30573 -0.0225,0.0281 -0.0764,0.0404 -0.0764,0.0764 0,0.036 0.0603,0.0442 0.0764,0.0764 0.0114,0.0228 -0.0114,0.0536 0,0.0764 0.0161,0.0322 0.0442,0.0603 0.0764,0.0764 0.004,0.002 0.22531,0.002 0.22931,0 0.0322,-0.0161 0.0442,-0.0603 0.0764,-0.0764 0.10543,-0.0527 0.0684,0.0926 0.15287,-0.0764 0.0114,-0.0228 -0.0114,-0.0536 0,-0.0764 0.0161,-0.0322 0.0603,-0.0442 0.0764,-0.0764 0.0114,-0.0228 -0.0114,-0.0536 0,-0.0764 0.0161,-0.0322 0.0603,-0.0442 0.0764,-0.0764 0.002,-0.004 0.002,-0.2253 0,-0.2293 -0.0472,-0.0944 -0.0738,-0.0764 -0.15287,-0.0764 -0.1297,0 -0.19441,-0.0142 -0.30574,0.15287 -0.0583,0.0874 -0.0558,0.20272 -0.0764,0.30573 -0.005,0.025 -0.018,0.0584 0,0.0764 0.018,0.018 0.0584,-0.018 0.0764,0 0.018,0.018 -0.018,0.0584 0,0.0764 0.018,0.018 0.051,0 0.0764,0 0.0399,0 0.28564,0.0101 0.30573,0 0.0322,-0.0161 0.0603,-0.0442 0.0764,-0.0764 0.0228,-0.0456 -0.036,-0.11684 0,-0.15287 0.018,-0.018 0.0584,0.018 0.0764,0 0.0598,-0.0598 -0.0665,-0.13297 -0.0764,-0.15287 -0.0114,-0.0228 0.018,-0.0584 0,-0.0764 -0.018,-0.018 -0.0536,0.0114 -0.0764,0 -0.0322,-0.0161 -0.0442,-0.0603 -0.0764,-0.0764 -0.0228,-0.0114 -0.0517,-0.006 -0.0764,0 -0.29522,0.0738 -0.25293,0.059 -0.38218,0.38217 -0.009,0.0237 0,0.051 0,0.0764 0,0.0255 -0.018,0.0584 0,0.0764 0.036,0.036 0.1073,-0.0228 0.15287,0 0.0322,0.0161 0.0404,0.0764 0.0764,0.0764 0.0255,0 -0.018,-0.0584 0,-0.0764 0.036,-0.036 0.11683,0.036 0.15287,0 0.018,-0.018 -0.0114,-0.0536 0,-0.0764 0.0161,-0.0322 0.0603,-0.0442 0.0764,-0.0764 0.0114,-0.0228 -0.0114,-0.0536 0,-0.0764 0.0161,-0.0322 0.0603,-0.0442 0.0764,-0.0764 0.0114,-0.0228 0,-0.051 0,-0.0764 0,-0.0255 0.018,-0.0584 0,-0.0764 -0.018,-0.018 -0.051,0 -0.0764,0 -0.0255,0 -0.051,0 -0.0764,0 -0.0764,0 -0.15287,0 -0.22931,0 z"
       id="path4272-6-4"
       inkscape:connector-curvature="0" />
    <path
       style="fill:none;fill-rule:evenodd;stroke:#e74c3c;stroke-width:0.60533422px;stroke-linecap:butt;stroke-linejoin:miter;stroke-opacity:0.94117647"
       d="m 294.31848,443.88626 c 1.54662,0.94113 3.48779,2.5838 5.56664,2.44936 0.69666,-0.12083 1.40442,-0.0275 2.10146,-0.14034 0.695,-0.0279 1.39371,0.0448 2.08312,-0.0825 0.5617,-0.0125 1.12763,0.0492 1.68157,-0.0764 1.50737,-0.69296 2.16938,-0.67291 4.00867,-2.7551"
       id="path4280-9-3"
       inkscape:connector-curvature="0"
       sodipodi:nodetypes="cccccc" />
    <path
       style="fill:none;fill-opacity:1;fill-rule:evenodd;stroke:#e84b3c;stroke-width:0.90603054;stroke-opacity:0.94117647"
       d="m 302.97544,498.42726 8.44024,-33.35481"
       id="path4376-5"
       inkscape:connector-curvature="0"
       inkscape:transform-center-x="-3.036673"
       inkscape:transform-center-y="4.1670025" />
    <text
       xml:space="preserve"
       style="font-style:normal;font-weight:normal;font-size:40px;line-height:125%;font-family:sans-serif;letter-spacing:0px;word-spacing:0px;fill:#000000;fill-opacity:1;stroke:none;stroke-width:1px;stroke-linecap:butt;stroke-linejoin:miter;stroke-opacity:1"
       x="345.3288"
       y="455.7384"
       id="text4539"
       sodipodi:linespacing="125%"><tspan
         sodipodi:role="line"
         id="tspan4541"
         x="345.3288"
         y="455.7384" /></text>
    <a
       id="a4470-9"
       transform="matrix(-1.1790241,0,0,0.71386646,747.35015,107.36743)">
      <path
         id="path4461-4"
         style="fill:none;fill-rule:evenodd;stroke:#000000;stroke-width:1px;stroke-linecap:butt;stroke-linejoin:miter;stroke-opacity:1"
         d="m 392.21708,386.65485 c 6.31021,-2.34944 8.20967,-14.8963 2.08175,-19.25446 -13.84681,-12.59622 -34.34469,-13.57162 -52.06445,-14.00781 -17.20647,0.96125 -37.0281,2.77132 -49.22266,16.47656 -5.0033,6.80926 0.63346,15.42108 7.01758,18.875 16.36171,8.85129 31.48726,9.69416 50.36392,8.22722 l 3.49905,0.18885 c 4.922,-0.83189 22.01075,18.67962 22.01075,18.67962 0,0 -11.93845,-17.28014 -7.44275,-20.89381 z"
         inkscape:connector-curvature="0"
         sodipodi:nodetypes="cccccccccc" />
    </a>
    <text
       xml:space="preserve"
       style="font-style:normal;font-variant:normal;font-weight:normal;font-stretch:normal;font-size:10.29372978px;line-height:125%;font-family:Cretan;-inkscape-font-specification:Cretan;letter-spacing:0px;word-spacing:0px;fill:#000000;fill-opacity:1;stroke:none;stroke-width:1px;stroke-linecap:butt;stroke-linejoin:miter;stroke-opacity:1"
       x="426.25702"
       y="252.8511"
       id="text4404-3"
       sodipodi:linespacing="125%"
       transform="scale(0.66369724,1.5067111)"><tspan
         sodipodi:role="line"
         x="426.25702"
         y="252.8511"
         id="tspan4418-5"
         style="font-style:normal;font-variant:normal;font-weight:normal;font-stretch:normal;font-family:Cretan;-inkscape-font-specification:Cretan">I can grow interesting projects inside ME ! </tspan></text>
    <circle
       style="fill:none;fill-opacity:1;stroke:#3498db;stroke-width:1.00380051;stroke-miterlimit:4;stroke-dasharray:none;stroke-opacity:1"
       id="path4208-5"
       cx="383.57141"
       cy="455.21933"
       r="28.898762" />
    <text
       xml:space="preserve"
       style="font-style:normal;font-weight:normal;font-size:9.27888012px;line-height:125%;font-family:sans-serif;letter-spacing:0px;word-spacing:0px;fill:#3498db;fill-opacity:1;stroke:none;stroke-width:1px;stroke-linecap:butt;stroke-linejoin:miter;stroke-opacity:1"
       x="368.10822"
       y="453.03452"
       id="text4210-2"
       sodipodi:linespacing="125%"
       transform="scale(0.97012123,1.030799)"><tspan
         sodipodi:role="line"
         id="tspan4212-8"
         x="368.10822"
         y="453.03452"
         style="fill:#3498db;fill-opacity:1">Container 3</tspan></text>
    <path
       style="fill:none;fill-rule:evenodd;stroke:#3498db;stroke-width:0.62370265px;stroke-linecap:butt;stroke-linejoin:miter;stroke-opacity:1"
       d="m 355.54679,446.2555 55.76526,0 z"
       id="path4214-3"
       inkscape:connector-curvature="0" />
    <path
       style="fill:none;fill-rule:evenodd;stroke:#3498db;stroke-width:0.61287016px;stroke-linecap:butt;stroke-linejoin:miter;stroke-opacity:1"
       d="m 387.67277,435.99915 c -0.14592,-0.0365 -0.28735,-0.10944 -0.43776,-0.10944 -0.0365,0 0,0.0729 0,0.10944 0,0.0729 0,0.14591 0,0.21888 0,0.0365 0,0.073 0,0.10944 0,0.0365 -0.0258,0.0836 0,0.10944 0.0258,0.0258 0.0768,-0.0163 0.10944,0 0.0462,0.023 0.0633,0.0864 0.10944,0.10944 0.0326,0.0163 0.073,0 0.10944,0 0.0365,0 0.0768,0.0163 0.10944,0 0.20407,-0.10204 0.15615,-0.39106 0,-0.5472 -0.10636,-0.10636 -0.28735,-0.10944 -0.43776,-0.10944 -0.0365,0 0.0163,0.0768 0,0.10944 -0.0231,0.0461 -0.0864,0.0633 -0.10944,0.10944 -0.0163,0.0326 0,0.073 0,0.10944 0,0.0365 -0.0163,0.0768 0,0.10944 0.023,0.0462 0.0729,0.073 0.10944,0.10944 0.0365,0.0365 0.0633,0.0864 0.10944,0.10944 0.0333,0.0167 0.27903,0 0.32832,0 0.0365,0 0.073,0 0.10945,0 0.0365,0 0.0768,0.0163 0.10944,0 0.0462,-0.0231 0.12859,-0.0615 0.10944,-0.10944 -0.16898,-0.42243 -0.34345,-0.54343 -0.76609,-0.43776 -0.0354,0.009 0,0.0729 0,0.10944 0,0.0365 0,0.073 0,0.10944 0,0.0493 -0.0167,0.29501 0,0.32832 0.023,0.0462 0.0633,0.0864 0.10944,0.10944 0.009,0.005 0.42843,0.005 0.43777,0 0.349,-0.1745 -0.20452,-0.4665 -0.10945,-0.65664 0.0653,-0.13052 0.43777,-0.14593 0.43777,0 0,0.14591 -0.31107,-0.0724 -0.43777,0 -0.15837,0.0905 -0.26058,0.2684 -0.32832,0.43776 -0.0192,0.0479 0.073,0.073 0.10944,0.10944 0.0365,0.0365 0.0864,0.0633 0.10944,0.10944 0.0163,0.0326 -0.0258,0.0836 0,0.10944 0.004,0.004 0.30178,0 0.32833,0 0.0365,0 0.0836,0.0258 0.10944,0 0.0258,-0.0258 -0.0163,-0.0768 0,-0.10944 0.023,-0.0462 0.0864,-0.0633 0.10944,-0.10944 0.0326,-0.0653 -0.0326,-0.15363 0,-0.21888 0.023,-0.0461 0.10944,-0.0579 0.10944,-0.10944 0,-0.0516 -0.0864,-0.0633 -0.10944,-0.10944 -0.0163,-0.0326 0,-0.073 0,-0.10944 0,-0.0365 0.0365,-0.10944 0,-0.10944 -0.29812,0 -0.70138,0.20555 -0.87553,0.43776 -0.0309,0.0412 0.0864,0.0633 0.10944,0.10944 0.0163,0.0326 -0.0258,0.0836 0,0.10944 0.0258,0.0258 0.0836,-0.0258 0.10944,0 0.0258,0.0258 -0.0258,0.0837 0,0.10944 0.0258,0.0258 0.0836,-0.0258 0.10944,0 0.0258,0.0258 -0.0258,0.0836 0,0.10944 0.0258,0.0258 0.073,0 0.10944,0 0.0365,0 0.0768,0.0163 0.10945,0 0.0462,-0.023 0.073,-0.073 0.10944,-0.10944 0.0365,-0.0365 0.0864,-0.0633 0.10944,-0.10944 0.0163,-0.0326 -0.0163,-0.0768 0,-0.10944 0.023,-0.0462 0.0864,-0.0633 0.10944,-0.10944 0.0163,-0.0326 0,-0.073 0,-0.10944 0,-0.0365 0.0326,-0.0931 0,-0.10944 -0.44233,-0.22117 -0.59983,-0.13119 -0.87553,0.32832 -0.0265,0.0443 0.0864,0.0633 0.10944,0.10944 0,0.29184 -0.0365,-0.0365 0.10944,0.10944 0.0258,0.0258 -0.0258,0.0836 0,0.10944 0.0258,0.0258 0.073,0 0.10944,0 0.0365,0 0.073,0 0.10944,0 0.0365,0 0.0768,0.0163 0.10945,0 0.0291,-0.0145 0.31379,-0.29927 0.32832,-0.32832 0.0217,-0.0434 -0.0224,-0.30595 0,-0.32832 0.0258,-0.0258 0.10944,-0.0365 0.10944,0 0,0.0365 -0.0836,0.0258 -0.10944,0 -0.0258,-0.0258 0.0354,-0.1006 0,-0.10944 -0.14157,-0.0354 -0.31635,-0.081 -0.43777,0 -0.13574,0.0905 -0.15829,0.28628 -0.21888,0.43776 -0.0136,0.0339 0,0.073 0,0.10944 0,0.0365 -0.0258,0.0837 0,0.10944 0.0258,0.0258 0.0768,-0.0163 0.10944,0 0.0462,0.0231 0.0633,0.0864 0.10944,0.10944 0.0326,0.0163 0.073,0 0.10945,0 0.0365,0 0.0768,0.0163 0.10944,0 0.0462,-0.023 0.0633,-0.0864 0.10944,-0.10944 0.0326,-0.0163 0.0836,0.0258 0.10944,0 0.0258,-0.0258 -0.0163,-0.0768 0,-0.10944 0.023,-0.0462 0.0864,-0.0633 0.10944,-0.10944 0.0112,-0.0224 0.0154,-0.31289 0,-0.32832 -0.0258,-0.0258 -0.0737,0.007 -0.10944,0 -0.63861,-0.12773 -0.25706,-0.1998 -0.87553,0.10944"
       id="path4222-1"
       inkscape:connector-curvature="0" />
    <path
       style="fill:none;fill-rule:evenodd;stroke:#3498db;stroke-width:0.61287016px;stroke-linecap:butt;stroke-linejoin:miter;stroke-opacity:1"
       d="m 388.21998,433.81032 c 0.14592,0.073 0.29184,0.14592 0.43776,0.21888 0.0365,0.0365 0.0665,0.0808 0.10944,0.10944 0.0679,0.0452 0.16121,0.0518 0.21888,0.10944 0.26582,0.26582 -0.0325,0.16071 0.21889,0.32833 0.0679,0.0452 0.1612,0.0517 0.21888,0.10944 0.0577,0.0577 0.0642,0.15101 0.10944,0.21888 0.0286,0.0429 0.0864,0.0633 0.10944,0.10944 0.0163,0.0326 -0.0115,0.0748 0,0.10945 0.0258,0.0774 0.0837,0.14149 0.10944,0.21888 0.0231,0.0692 0,0.14592 0,0.21888"
       id="path4228-8"
       inkscape:connector-curvature="0" />
    <path
       style="fill:none;fill-rule:evenodd;stroke:#3498db;stroke-width:0.61287016px;stroke-linecap:butt;stroke-linejoin:miter;stroke-opacity:1"
       d="m 375.57944,442.47915 c 0.84447,0.24605 1.44627,0.22256 3.41319,1.13588 3.45151,0.83255 4.32237,0.50668 5.9197,0.19875 l 5.36024,-2.37723"
       id="path4252-2"
       inkscape:connector-curvature="0"
       sodipodi:nodetypes="cccc" />
    <path
       style="fill:none;fill-rule:evenodd;stroke:#3498db;stroke-width:0.61287016px;stroke-linecap:butt;stroke-linejoin:miter;stroke-opacity:1"
       d="m 376.61922,436.32747 c -0.0365,0.14592 -0.10944,0.28735 -0.10944,0.43776 0,0.0365 0.0768,-0.0163 0.10944,0 0.089,0.0445 0.0906,0.1736 0.21888,0.10944 0.0462,-0.023 0.0633,-0.0864 0.10944,-0.10944 0.15096,-0.0755 0.0979,0.13254 0.21889,-0.10944 0.0163,-0.0326 -0.0258,-0.0836 0,-0.10944 0.0258,-0.0258 0.0836,0.0258 0.10944,0 0.0547,-0.0547 -0.0547,-0.2736 0,-0.32832 0.0258,-0.0258 0.10944,0.0365 0.10944,0 0,-0.0516 -0.0864,-0.0633 -0.10944,-0.10944 0,-0.29185 0.0365,0.0365 -0.10944,-0.10944 -0.0258,-0.0258 0.0258,-0.0837 0,-0.10944 -0.0258,-0.0258 -0.073,0 -0.10944,0 -0.20624,0 -0.51559,-0.0292 -0.43777,0.43776 0.0392,0.23519 0.37104,0.21888 0.54721,0.21888 0.0365,0 0.0768,0.0163 0.10944,0 0.45547,-0.22773 -0.117,0.008 0.10944,-0.21888 0.0258,-0.0258 0.0836,0.0258 0.10944,0 0.0258,-0.0258 0,-0.073 0,-0.10944 0,-0.0365 0.0163,-0.0768 0,-0.10944 -0.023,-0.0462 -0.0633,-0.0864 -0.10944,-0.10944 -0.005,-0.002 -0.32565,-0.002 -0.32832,0 -0.15641,0.0938 -0.38766,0.15293 -0.43777,0.32832 -0.1488,0.52082 0.32045,0.43776 0.54721,0.43776 0.0365,0 0.0729,0 0.10944,0 0.0365,0 0.0836,0.0258 0.10944,0 0.0258,-0.0258 -0.0163,-0.0768 0,-0.10944 0.023,-0.0462 0.0864,-0.0633 0.10944,-0.10944 0.0326,-0.0653 -0.0516,-0.16729 0,-0.21888 0.0258,-0.0258 0.10944,0.0365 0.10944,0 0,-0.0516 -0.0864,-0.0633 -0.10944,-0.10944 -0.0326,-0.0653 0.0516,-0.16729 0,-0.21888 -0.0258,-0.0258 -0.0768,0.0163 -0.10944,0 -0.0462,-0.0231 -0.0633,-0.0864 -0.10944,-0.10944 -0.0326,-0.0163 -0.073,0 -0.10944,0 -0.0365,0 -0.073,0 -0.10944,0 -0.26088,0 -0.43777,-0.062 -0.43777,0.43776 0,0.47039 0.10833,0.43776 0.32832,0.43776 0.0365,0 0.0837,-0.0258 0.10945,0 0.0258,0.0258 -0.0365,0.10944 0,0.10944 0.0516,0 0.0633,-0.0864 0.10944,-0.10944 0.0326,-0.0163 0.0836,0.0258 0.10944,0 0.0516,-0.0516 -0.0326,-0.15362 0,-0.21888 0.023,-0.0462 0.0864,-0.0633 0.10944,-0.10944 0.0163,-0.0326 0,-0.073 0,-0.10944 0,-0.0365 0.0163,-0.0768 0,-0.10944 -0.0145,-0.029 -0.29927,-0.3138 -0.32832,-0.32832 -0.0326,-0.0163 -0.073,0 -0.10945,0 -0.0365,0 -0.0729,0 -0.10944,0 -0.0365,0 -0.0931,-0.0326 -0.10944,0 -0.0673,0.13453 -0.073,0.29184 -0.10944,0.43776 -0.0365,0.14592 -0.10944,0.28735 -0.10944,0.43776 0,0.15541 0.25051,0.10944 0.32832,0.10944 0.20985,0 0.16944,0.0495 0.32833,-0.10944 0.0365,-0.0365 0.0864,-0.0633 0.10944,-0.10944 0.0326,-0.0653 -0.0326,-0.15363 0,-0.21888 0.023,-0.0462 0.0864,-0.0633 0.10944,-0.10944 0.0642,-0.12833 -0.0649,-0.1299 -0.10944,-0.21888 -0.0163,-0.0326 0.0258,-0.0837 0,-0.10944 -0.0258,-0.0258 -0.073,0 -0.10944,0 -0.21847,0 -0.44715,-0.0219 -0.54721,0.32832 -0.0448,0.15687 0.12099,0.30725 0.21888,0.43776 0.0219,0.0292 0.073,0 0.10944,0 0.0365,0 0.073,0 0.10945,0 0.26662,0 0.0406,-0.0812 0.10944,-0.21888 0.023,-0.0462 0.0864,-0.0633 0.10944,-0.10944 0.003,-0.006 0.003,-0.3226 0,-0.32832 -0.023,-0.0462 -0.0633,-0.0864 -0.10944,-0.10944 -0.19026,-0.0951 -0.35695,0.42345 -0.54721,0.32832 -0.14592,-0.073 0.17932,-0.27949 0.21888,-0.43776 0.009,-0.0354 -0.0931,-0.0326 -0.10944,0 -0.0673,0.13453 -0.0566,0.29692 -0.10944,0.43776 -0.0788,0.21005 -0.38584,0.409 -0.10944,0.5472 0.006,0.003 0.3226,0.003 0.32832,0 0.0291,-0.0145 0.3138,-0.29926 0.32833,-0.32832 0.0163,-0.0326 -0.0258,-0.0836 0,-0.10944 0.0258,-0.0258 0.0836,0.0258 0.10944,0 0.004,-0.004 0,-0.30178 0,-0.32832 0,-0.0365 0,-0.073 0,-0.10944 0,-0.0365 0.0258,-0.0837 0,-0.10944 -0.004,-0.004 -0.39758,0 -0.43777,0 -0.0365,0 -0.0931,-0.0326 -0.10944,0 -0.0673,0.13453 -0.073,0.29184 -0.10944,0.43776 z"
       id="path4254-7"
       inkscape:connector-curvature="0" />
    <path
       style="fill:none;fill-rule:evenodd;stroke:#3498db;stroke-width:0.61287016px;stroke-linecap:butt;stroke-linejoin:miter;stroke-opacity:1"
       d="m 375.08705,435.3425 c 0.10944,-0.14593 0.21888,-0.29184 0.32832,-0.43777 0.0365,0 0.0837,0.0258 0.10944,0 0.0258,-0.0258 -0.0163,-0.0768 0,-0.10944 0.0226,-0.0453 0.28194,-0.29739 0.32832,-0.32832 0.0551,-0.24112 0.22515,-0.0578 0.32832,-0.10944 0.0923,-0.0462 0.121,-0.18626 0.21889,-0.21889 0.4982,0 0.006,0.0516 0.32832,-0.10944 0.0711,-0.0355 0.47779,0.0347 0.54721,0 0.0462,-0.023 0.0633,-0.0864 0.10944,-0.10944 0.0333,-0.0167 0.27903,0 0.32832,0"
       id="path4256-0"
       inkscape:connector-curvature="0" />
    <a
       id="a4470-9-5"
       transform="matrix(-1.0104818,0,0,0.73903204,781.28392,122.68711)">
      <path
         id="path4461-4-2"
         style="fill:none;fill-rule:evenodd;stroke:#000000;stroke-width:1px;stroke-linecap:butt;stroke-linejoin:miter;stroke-opacity:1"
         d="m 392.21708,386.65485 c 6.31021,-2.34944 8.20967,-14.8963 2.08175,-19.25446 -13.84681,-12.59622 -34.34469,-13.57162 -52.06445,-14.00781 -17.20647,0.96125 -37.0281,2.77132 -49.22266,16.47656 -5.0033,6.80926 0.63346,15.42108 7.01758,18.875 16.36171,8.85129 31.48726,9.69416 50.36392,8.22722 l 3.49905,0.18885 c 4.922,-0.83189 22.01075,18.67962 22.01075,18.67962 0,0 -11.93845,-17.28014 -7.44275,-20.89381 z"
         inkscape:connector-curvature="0"
         sodipodi:nodetypes="cccccccccc" />
    </a>
    <path
       style="fill:none;fill-opacity:1;fill-rule:evenodd;stroke:#3498db;stroke-width:0.671;stroke-miterlimit:4;stroke-dasharray:none;stroke-opacity:1"
       d="m 381.25386,484.30098 4.63514,25.40818"
       id="path4376-6"
       inkscape:connector-curvature="0" />
    <text
       xml:space="preserve"
       style="font-style:normal;font-variant:normal;font-weight:normal;font-stretch:normal;font-size:9.76829433px;line-height:125%;font-family:Cretan;-inkscape-font-specification:Cretan;letter-spacing:0px;word-spacing:0px;fill:#000000;fill-opacity:1;stroke:none;stroke-width:1px;stroke-linecap:butt;stroke-linejoin:miter;stroke-opacity:1"
       x="506.59061"
       y="305.57468"
       id="text4404-3-1"
       sodipodi:linespacing="125%"
       transform="scale(0.75612862,1.3225263)"><tspan
         sodipodi:role="line"
         x="506.59061"
         y="305.57468"
         id="tspan4418-5-1"
         style="font-style:normal;font-variant:normal;font-weight:normal;font-stretch:normal;font-family:Cretan;-inkscape-font-specification:Cretan">I'm going to become a mail server!</tspan></text>
    <path
       sodipodi:type="star"
       style="fill:none;fill-opacity:1;stroke:#2c3e50;stroke-width:2;stroke-miterlimit:4;stroke-dasharray:none;stroke-opacity:1"
       id="path4283-7"
       sodipodi:sides="5"
       sodipodi:cx="681.3479"
       sodipodi:cy="569.50928"
       sodipodi:r1="50.165543"
       sodipodi:r2="40.584778"
       sodipodi:arg1="1.0079281"
       sodipodi:arg2="1.6362466"
       inkscape:flatsided="true"
       inkscape:rounded="0"
       inkscape:randomized="0"
       d="m 708.11694,611.93568 -58.84686,-3.85705 -14.51641,-57.15859 49.87524,-31.4689 45.34099,37.70975 z"
       inkscape:transform-center-x="-0.033345137"
       inkscape:transform-center-y="-2.6617416"
       transform="matrix(0.56120004,-0.03462732,0.03462732,0.56120004,104.27475,162.98312)" />
    <text
       xml:space="preserve"
       style="font-style:normal;font-weight:normal;font-size:6.44886923px;line-height:125%;font-family:sans-serif;letter-spacing:0px;word-spacing:0px;fill:#2c3e50;fill-opacity:1;stroke:none;stroke-width:1px;stroke-linecap:butt;stroke-linejoin:miter;stroke-opacity:1"
       x="505.77264"
       y="456.16028"
       id="text4285-8"
       sodipodi:linespacing="125%"
       transform="matrix(0.9775539,0.01485936,-0.01420277,1.0227456,0,0)"><tspan
         sodipodi:role="line"
         id="tspan4287-8"
         x="505.77264"
         y="456.16028">Container 4</tspan></text>
    <path
       style="fill:none;fill-rule:evenodd;stroke:#2c3e50;stroke-width:0.5622673px;stroke-linecap:butt;stroke-linejoin:miter;stroke-opacity:1"
       d="m 485.12733,466.4261 c 42.37086,0 42.57167,0.2008 42.57167,0.2008 z"
       id="path4289-6"
       inkscape:connector-curvature="0" />
    <path
       style="fill:none;fill-rule:evenodd;stroke:#2c3e50;stroke-width:0.5622673px;stroke-linecap:butt;stroke-linejoin:miter;stroke-opacity:1"
       d="m 496.42823,449.55591 c -0.071,0.0947 -0.16008,0.17816 -0.21299,0.28399 -0.0211,0.0423 -0.0115,0.0961 0,0.142 0.0115,0.0461 0.18283,0.38073 0.21299,0.42598 0.013,0.0195 0.19803,0.208 0.21299,0.21299 0.0449,0.015 0.0947,0 0.14199,0 0.13252,0 0.19509,-0.0531 0.28399,-0.142 0.0237,-0.0237 0.0525,-0.0431 0.071,-0.071 0.0294,-0.044 0.0474,-0.0947 0.071,-0.142 0.0237,-0.0473 0.0582,-0.0907 0.071,-0.14199 0.0172,-0.0689 0,-0.14199 0,-0.21299 0,-0.1016 0.0335,-0.16076 -0.071,-0.21299 -0.0211,-0.0106 -0.0498,0.0106 -0.071,0 -0.0299,-0.015 -0.0392,-0.0604 -0.071,-0.071 -0.0898,-0.0299 -0.19027,0.0134 -0.28399,0 -0.11946,-0.017 -0.2515,-0.13308 -0.35498,-0.071 -0.0812,0.0487 0.0351,0.1961 0,0.28399 -0.0196,0.0491 -0.10458,0.0336 -0.14199,0.071 -0.0375,0.0374 -0.0473,0.0947 -0.071,0.14199 -0.0237,0.0473 -0.0473,0.0947 -0.071,0.14199 -0.0237,0.0473 -0.0582,0.0907 -0.071,0.142 -0.0115,0.0459 0,0.0947 0,0.14199 0,0.0473 -0.0115,0.0961 0,0.142 0.0362,0.14465 0.14801,0.23866 0.28399,0.28398 0.0224,0.007 0.0473,0 0.071,0 0.0473,0 0.0961,0.0115 0.14199,0 0.0513,-0.0128 0.0947,-0.0473 0.142,-0.071 0.0473,-0.0237 0.098,-0.0417 0.14199,-0.071 0.0278,-0.0186 0.0473,-0.0473 0.071,-0.071 0.17941,-0.17942 0.11206,-0.0821 0.21298,-0.28399 0.0237,-0.0473 0.0582,-0.0907 0.071,-0.142 0.0115,-0.0459 0,-0.0947 0,-0.14199 0,-0.0473 0,-0.0947 0,-0.14199 0,-0.0237 0,-0.0473 0,-0.071 0,-0.0237 0.0106,-0.0498 0,-0.071 -0.0149,-0.0299 -0.0473,-0.0473 -0.071,-0.071 -0.0237,-0.0237 -0.041,-0.056 -0.071,-0.071 -0.0211,-0.0106 -0.0498,0.0106 -0.071,0 -0.0299,-0.015 -0.041,-0.056 -0.071,-0.071 -0.0696,-0.0348 -0.10351,0.0325 -0.142,0.071 -0.0237,0.0237 -0.056,0.041 -0.071,0.071 -0.0106,0.0211 0.007,0.0485 0,0.071 -0.0168,0.0502 -0.071,0.0891 -0.071,0.142 0,0.0335 0.056,0.041 0.071,0.071 0.0106,0.0211 -0.0106,0.0498 0,0.071 0.009,0.0188 0.19414,0.20357 0.21299,0.21299 0.0199,0.01 0.26406,0.01 0.28398,0 0.0188,-0.009 0.20357,-0.19414 0.21299,-0.21299 0.0106,-0.0211 0,-0.0473 0,-0.071 0,-0.0237 0.0106,-0.0498 0,-0.071 -0.0149,-0.0299 -0.056,-0.041 -0.071,-0.071 -0.10206,-0.20411 0.24937,0.11891 -0.142,-0.142 -0.0278,-0.0186 -0.0392,-0.0604 -0.071,-0.071 -0.10598,-0.0353 -0.2475,0.0307 -0.35498,0 -0.12254,-0.035 -0.241,-0.19899 -0.35498,-0.142 -0.0873,0.0436 0.071,0.18642 0.071,0.28399 0,0.0335 -0.056,0.0411 -0.071,0.071 -0.0106,0.0211 0,0.0473 0,0.071 0,0.17825 0.003,0.21553 0.14199,0.35498 0.0237,0.0237 0.0392,0.0604 0.071,0.071 0.0449,0.0149 0.0971,-0.015 0.14199,0 0.1016,0.0338 0.0277,0.10908 0.142,0.071 0.12894,-0.043 0.13175,-0.0608 0.21298,-0.14199 0.0237,-0.0237 0.056,-0.041 0.071,-0.071 0.0106,-0.0211 -0.0106,-0.0498 0,-0.071 0.0588,-0.11751 0.13564,-0.0191 0.071,-0.21298 -0.0106,-0.0318 -0.056,-0.041 -0.071,-0.071 -0.0106,-0.0211 0.0106,-0.0498 0,-0.071 -0.0149,-0.0299 -0.0473,-0.0473 -0.071,-0.071 -0.0237,-0.0237 -0.0431,-0.0524 -0.071,-0.071 -0.044,-0.0294 -0.098,-0.0417 -0.14199,-0.071 -0.0278,-0.0186 -0.041,-0.056 -0.071,-0.071 -0.0211,-0.0106 -0.0473,0 -0.071,0 -0.0237,0 -0.0473,0 -0.071,0 -0.0947,0 -0.24166,-0.0847 -0.28399,0 -0.0473,0.0947 0.10268,0.18572 0.14199,0.28399 0.009,0.022 0,0.0473 0,0.071 0.0237,0.0473 0.0417,0.098 0.071,0.14199 0.0651,0.0977 0.10953,0.073 0.21299,0.14199 0.0278,0.0186 0.0392,0.0604 0.071,0.071 0.0674,0.0224 0.14199,0 0.21298,0 0.0237,0 0.0474,0 0.071,0 0.0237,0 0.0498,0.0106 0.071,0 0.065,-0.0325 0.1247,-0.16111 0.14199,-0.21299 0.007,-0.0224 0.0106,-0.0498 0,-0.071 -0.0127,-0.0254 -0.25446,-0.26431 -0.28399,-0.28399 -0.044,-0.0294 -0.0918,-0.0543 -0.14198,-0.071 -0.0609,-0.0203 -0.21193,0.0144 -0.28399,0 -0.0957,-0.0191 -0.20593,-0.12954 -0.28399,-0.071 -0.0757,0.0568 0,0.18933 0,0.28399 0,0.0237 0.0106,0.0498 0,0.071 -0.0407,0.0813 -0.1043,0.0421 -0.071,0.14199 0.0168,0.0502 0.0543,0.0918 0.071,0.14199 0.007,0.0224 -0.007,0.0485 0,0.071 0.0173,0.0519 0.077,0.1805 0.14199,0.21299 0.0211,0.0106 0.0498,-0.0106 0.071,0 0.0299,0.015 0.041,0.056 0.071,0.071 0.004,0.002 0.20927,0.002 0.21299,0 0.0299,-0.0149 0.041,-0.056 0.071,-0.071 0.0211,-0.0106 0.0543,0.0168 0.071,0 0.0168,-0.0168 0,-0.0473 0,-0.071 0,-0.0473 0,-0.0947 0,-0.142 0,-0.071 0.0224,-0.14564 0,-0.21299 -0.0106,-0.0318 -0.056,-0.0411 -0.071,-0.071 -0.0874,-0.17487 0.20608,0.0641 -0.071,-0.213 -0.0168,-0.0168 -0.0485,0.007 -0.071,0 -0.0502,-0.0168 -0.0947,-0.0473 -0.14199,-0.071 -0.0947,-0.0473 -0.18359,-0.17546 -0.28399,-0.142 -0.10041,0.0335 -0.0947,0.18933 -0.14199,0.28399 -0.0237,0.0473 -0.0543,0.0918 -0.071,0.142 -0.006,0.0192 -0.003,0.34695 0,0.35498 0.0233,0.0698 0.17571,0.11714 0.21299,0.14199 0.0278,0.0186 0.0432,0.0525 0.071,0.071 0.044,0.0294 0.0918,0.0543 0.142,0.071 0.0224,0.007 0.0473,0 0.071,0 0.0473,0 0.0971,0.015 0.14199,0 0.0318,-0.0106 0.0431,-0.0525 0.071,-0.071 0.10346,-0.069 0.14787,-0.0443 0.21298,-0.14199 0.0294,-0.044 0.0582,-0.0907 0.071,-0.142 0.002,-0.008 0.002,-0.34808 0,-0.35498 -0.0106,-0.0318 -0.0473,-0.0473 -0.071,-0.071 -0.0237,-0.0237 -0.0473,-0.0473 -0.071,-0.071 -0.0474,-0.0473 -0.0863,-0.10486 -0.14199,-0.14199 -0.14251,-0.095 -0.32459,-0.13564 -0.49698,-0.071 -0.0496,0.0186 -0.4153,0.37637 -0.35499,0.49698 0.019,0.0379 0.17562,0.17562 0.213,0.21299"
       id="path4297-7"
       inkscape:connector-curvature="0" />
    <path
       style="fill:none;fill-rule:evenodd;stroke:#2c3e50;stroke-width:0.5622673px;stroke-linecap:butt;stroke-linejoin:miter;stroke-opacity:1"
       d="m 512.75753,449.34292 c -0.0947,0.0237 -0.19339,0.0348 -0.28399,0.071 -0.14717,0.0589 -0.029,0.0579 -0.071,0.14199 -0.0299,0.0599 -0.12082,0.0785 -0.14199,0.142 -0.0149,0.0449 0,0.0947 0,0.14199 0,0.0473 0,0.0947 0,0.142 0,0.18277 -0.0156,0.32379 0.071,0.49697 0.0149,0.0299 0.0525,0.0431 0.071,0.071 0.0249,0.0373 0.0722,0.18974 0.142,0.21299 0.0449,0.015 0.0947,0 0.14199,0 0.0237,0 0.0498,0.0106 0.071,0 0.0299,-0.0149 0.0431,-0.0525 0.071,-0.071 0.044,-0.0293 0.10457,-0.0336 0.14199,-0.071 0.0374,-0.0374 0.0473,-0.0947 0.071,-0.142 0.0237,-0.0473 0.0582,-0.0906 0.071,-0.14199 0.0115,-0.0459 -0.0115,-0.0961 0,-0.142 0.0128,-0.0513 0.0543,-0.0918 0.071,-0.14199 0.0261,-0.0783 -0.021,-0.23403 -0.071,-0.28399 -0.0168,-0.0168 -0.0543,0.0168 -0.071,0 -0.0168,-0.0168 0.0168,-0.0543 0,-0.071 -0.0168,-0.0168 -0.0473,0 -0.071,0 -0.0237,0 -0.0473,0 -0.071,0 -0.0237,0 -0.0498,-0.0106 -0.071,0 -0.15698,0.0785 -0.022,0.0441 -0.071,0.14199 -0.015,0.0299 -0.0604,0.0393 -0.071,0.071 -0.0149,0.0449 0,0.0947 0,0.14199 0,0.0237 -0.0106,0.0498 0,0.071 0.14774,0.29547 -0.005,-0.0759 0.142,0.071 0.0168,0.0168 -0.0168,0.0543 0,0.071 0.0555,0.0555 0.12351,-0.0618 0.14199,-0.071 0.0211,-0.0106 0.0498,0.0106 0.071,0 0.13504,-0.0675 0.0342,-0.17374 0.071,-0.28398 0.0231,-0.0693 0.11671,-0.0506 0.071,-0.142 -0.015,-0.0299 -0.056,-0.041 -0.071,-0.071 -0.0211,-0.0423 0.0335,-0.10853 0,-0.142 -0.0168,-0.0168 -0.0473,0 -0.071,0 -0.0237,0 -0.0543,-0.0168 -0.071,0 -0.0335,0.0335 0.015,0.0971 0,0.142 -0.0168,0.0502 -0.0543,0.0918 -0.071,0.14199 -0.007,0.0224 0,0.0473 0,0.071 0,0.0473 0,0.0947 0,0.14199 0,0.11625 0.0258,0.14199 0.14199,0.14199 0.0237,0 0.0543,0.0168 0.071,0 0.0168,-0.0168 0,-0.0473 0,-0.071 0,-0.0237 0.0106,-0.0498 0,-0.071 -0.0149,-0.0299 -0.056,-0.0411 -0.071,-0.071 -0.0106,-0.0211 0.0106,-0.0498 0,-0.071 -0.015,-0.0299 -0.0473,-0.0473 -0.071,-0.071 -0.0237,-0.0237 -0.0375,-0.071 -0.071,-0.071 -0.0237,0 0,0.0473 0,0.071 0,0.0237 0,0.0473 0,0.071 0,0.0172 0.002,0.2107 0,0.21299 -0.0168,0.0168 -0.0543,-0.0168 -0.071,0 -0.0168,0.0168 0.0237,0.071 0,0.071 -0.0237,0 0.0106,-0.0498 0,-0.071 -0.015,-0.0299 -0.0473,-0.0473 -0.071,-0.071 -0.0237,-0.0237 -0.0604,-0.0393 -0.071,-0.071 -0.0149,-0.0449 0,-0.0947 0,-0.142 0,-0.0237 0.0106,-0.0498 0,-0.071 -0.0149,-0.0299 -0.0604,-0.0392 -0.071,-0.071 -0.0291,-0.0873 0.0262,-0.35499 0.14199,-0.35499 0.0448,0 0.17259,0.1922 0.142,0.28399 -0.0168,0.0502 -0.0582,0.0907 -0.071,0.14199 -0.0615,0.24592 0.0899,0.0426 -0.071,0.28399 -0.0186,0.0278 -0.056,0.041 -0.071,0.071 -0.0211,0.0423 0.0211,0.0997 0,0.14199 -0.0149,0.0299 -0.0375,0.071 -0.071,0.071 -0.0237,0 0,-0.0473 0,-0.071 0,-0.032 -0.0108,-0.19138 0,-0.21299 0.0149,-0.0299 0.056,-0.0411 0.071,-0.071 0.0106,-0.0211 -0.0106,-0.0498 0,-0.071 0.0546,-0.10923 0.18744,-0.071 0.28399,-0.071 0.0237,0 0.0473,0 0.071,0 0.0237,0 0.0498,-0.0106 0.071,0 0.0299,0.015 0.0411,0.056 0.071,0.071 0.0211,0.0106 0.0543,-0.0168 0.071,0 0.0168,0.0168 0.0168,0.0543 0,0.071 -0.0168,0.0168 -0.0474,0 -0.071,0 -0.0371,0 -0.26532,0.009 -0.28398,0 -0.0299,-0.015 -0.056,-0.041 -0.071,-0.071 -0.0211,-0.0423 0.0335,-0.10853 0,-0.142 -0.0168,-0.0168 -0.0543,0.0168 -0.071,0 -0.0715,-0.0715 0.10067,-0.0943 0.071,-0.21299 -0.0182,-0.0726 -0.1159,-0.15312 -0.071,-0.21299 0.0585,-0.0781 0.19339,-0.0347 0.28399,-0.071 0.21932,-0.0877 -0.0555,-0.071 0.14199,-0.071"
       id="path4301-7"
       inkscape:connector-curvature="0" />
    <path
       style="fill:none;fill-rule:evenodd;stroke:#2c3e50;stroke-width:0.7878468px;stroke-linecap:butt;stroke-linejoin:miter;stroke-opacity:1"
       d="m 499.43612,459.00921 c 0.22036,0.60235 -0.0616,1.40989 0.52064,1.84797 0.75819,0.263 1.87229,1.55548 2.64487,1.78265 0.6997,0.0576 1.03725,0.33167 2.10524,0.0356 2.178,0.29731 2.21668,-0.0167 4.3021,0.81611 3.40425,-0.37814 3.066,-0.71326 3.40425,-1.26202 0.29434,-0.40183 0.86162,-0.59376 1.06246,-1.01548 -0.19172,-0.30805 0.10424,-1.18314 0.31398,-1.085 -0.0231,0.12047 -0.22947,0.6498 -0.34385,0.29335"
       id="path4305-4"
       inkscape:connector-curvature="0"
       sodipodi:nodetypes="ccccccccc" />
    <path
       style="fill:none;fill-rule:evenodd;stroke:#2c3e50;stroke-width:0.5622673px;stroke-linecap:butt;stroke-linejoin:miter;stroke-opacity:1"
       d="m 494.93729,448.41996 c -0.071,-0.0947 -0.15211,-0.18252 -0.21299,-0.28399 -0.0243,-0.0406 0.0211,-0.0997 0,-0.14199 -0.0149,-0.0299 -0.056,-0.041 -0.071,-0.071 -0.0211,-0.0423 0.0212,-0.0997 0,-0.14199 -0.0149,-0.0299 -0.0947,-0.0473 -0.071,-0.071 0.0237,-0.0237 0.056,0.0411 0.071,0.071 0.0106,0.0211 -0.0106,0.0498 0,0.071 0.0426,0.0852 0.17039,0.1278 0.21299,0.213 0.0106,0.0211 -0.0168,0.0542 0,0.071 0.0168,0.0168 0.0653,-0.0229 0.071,0 0.0229,0.0918 -0.0947,0.28399 0,0.28399 0.39541,0 0.0877,-0.24639 0.14199,-0.35498 0.015,-0.0299 0.0604,-0.0393 0.071,-0.071 0.015,-0.0449 -0.0115,-0.0961 0,-0.142 0.0128,-0.0513 0.0543,-0.0918 0.071,-0.14199 0.0137,-0.0411 0,-0.22246 0,-0.28399 0,-0.0237 0,-0.0473 0,-0.071 0,-0.0237 -0.0168,-0.0543 0,-0.071 0.0691,-0.0691 0.17242,0.12171 0.21299,0.14199 0.0211,0.0106 0.0543,-0.0168 0.071,0 0.0168,0.0168 -0.0168,0.0543 0,0.071 0.007,0.007 0.20589,0.007 0.21299,0 0.0335,-0.0335 -0.0335,-0.10853 0,-0.14199 0.0168,-0.0168 0.0543,0.0168 0.071,0 0.0168,-0.0168 -0.0168,-0.0543 0,-0.071 0.0168,-0.0168 0.0498,0.0106 0.071,0 0.0299,-0.015 0.041,-0.056 0.071,-0.071 0.0914,-0.0457 0.0727,0.0479 0.14199,0.071 0.0449,0.015 0.0971,-0.015 0.142,0 0.0318,0.0106 0.041,0.056 0.071,0.071 0.008,0.004 0.34706,0.004 0.35498,0 0.0814,-0.0407 0.0987,-0.14814 0.14199,-0.213 0.0186,-0.0278 0.0525,-0.0431 0.071,-0.071 0.0293,-0.044 0.0417,-0.098 0.071,-0.14199 0.0215,-0.0323 0.26104,-0.27252 0.28398,-0.28399 0.0211,-0.0106 0.0485,0.007 0.071,0 0.1004,-0.0335 0.18933,-0.0947 0.28399,-0.142 0.14016,-0.0701 0.29165,-0.13239 0.42598,-0.21299 0.42837,-0.25702 0.0304,-0.0507 0.35499,-0.21299"
       id="path4333-9"
       inkscape:connector-curvature="0" />
    <path
       style="fill:none;fill-rule:evenodd;stroke:#2c3e50;stroke-width:0.5622673px;stroke-linecap:butt;stroke-linejoin:miter;stroke-opacity:1"
       d="m 511.47959,447.00002 c 0.0947,-0.0237 0.1883,-0.0518 0.28398,-0.071 0.0464,-0.009 0.0997,0.0211 0.142,0 0.0299,-0.015 0.0376,-0.071 0.071,-0.071 0.0335,0 0.0473,0.0473 0.071,0.071 0.0722,0.0722 0.11334,0.0984 0.142,0.21298 0.0287,0.1148 -0.0232,0.23896 0,0.35499 0.0104,0.0519 0.0543,0.0918 0.071,0.142 0.0311,0.0935 -0.0544,0.1503 0.071,0.21298 0.0211,0.0106 0.0473,0 0.071,0 0.0237,0 0.0498,0.0106 0.071,0 0.0299,-0.0149 0.0473,-0.0473 0.071,-0.071 0.0237,-0.0237 0.0525,-0.0431 0.071,-0.071 0.0294,-0.044 0.0417,-0.098 0.071,-0.14199 0.0201,-0.0301 0.18362,-0.19831 0.213,-0.21299 0.0696,-0.0348 0.1035,0.0325 0.14199,0.071 0.0237,0.0237 0.056,0.041 0.071,0.071 0.049,0.0979 -0.086,0.0635 0.071,0.142 0.0211,0.0106 0.0473,0 0.071,0 0.0237,0 0.0543,0.0168 0.071,0 0.0168,-0.0168 -0.0168,-0.0543 0,-0.071 0.0168,-0.0168 0.0498,0.0106 0.071,0 0.0299,-0.015 0.041,-0.056 0.071,-0.071 0.0211,-0.0106 0.0543,0.0168 0.071,0 0.0315,-0.0315 -0.0552,-0.1341 0.071,-0.071 0.13936,0.0697 0.0319,0.13493 0.071,0.213 0.015,0.0299 0.056,0.041 0.071,0.071 0.0106,0.0212 -0.0168,0.0543 0,0.071 0.0168,0.0168 0.0473,0 0.071,0 0.1665,0 -0.0335,0.0168 0.14199,-0.071 0.0211,-0.0106 0.0498,0.0106 0.071,0 0.0395,-0.0197 0.11911,-0.14199 0.142,-0.14199 0.0334,0 0.0473,0.0473 0.071,0.071 0.0237,0.0237 0.056,0.041 0.071,0.071 0.0106,0.0212 -0.0106,0.0498 0,0.071 0.015,0.0299 0.056,0.041 0.071,0.071 0.0106,0.0211 -0.0106,0.0498 0,0.071 0.015,0.0299 0.041,0.056 0.071,0.071 0.0211,0.0106 0.0473,0 0.071,0 0.071,0 0.14563,0.0224 0.21298,0 0.0318,-0.0106 0.0393,-0.0604 0.071,-0.071 0.0449,-0.015 0.0971,0.015 0.142,0 0.0318,-0.0106 0.0473,-0.0473 0.071,-0.071 0.0237,-0.0237 0.0473,-0.0473 0.071,-0.071"
       id="path4335-0"
       inkscape:connector-curvature="0" />
    <path
       style="fill:none;fill-opacity:1;fill-rule:evenodd;stroke:#2c3e50;stroke-width:0.68910128;stroke-miterlimit:4;stroke-dasharray:none;stroke-opacity:1"
       d="m 498.75738,481.80024 4.6281,26.83823"
       id="path4376-6-0"
       inkscape:connector-curvature="0" />
    <a
       id="a4470-9-5-2"
       transform="matrix(-0.9366344,0,0,0.86647694,872.7994,78.323767)">
      <path
         id="path4461-4-2-7"
         style="fill:none;fill-rule:evenodd;stroke:#000000;stroke-width:1.11399961px;stroke-linecap:butt;stroke-linejoin:miter;stroke-opacity:1"
         d="m 399.48379,378.41876 c 6.86502,-2.68001 8.93149,-16.99222 2.26478,-21.96358 -15.06427,-14.36852 -37.36439,-15.48116 -56.64213,-15.97872 -18.71933,1.0965 -40.28374,3.16125 -53.55049,18.79483 -5.44321,7.76732 0.68916,17.59083 7.63459,21.53072 17.80029,10.09667 34.25573,11.05814 54.79209,9.3848 l 3.8067,0.21542 c 5.35476,-0.94894 23.94601,21.30785 23.94601,21.30785 0,0 -12.98812,-19.71146 -8.09714,-23.83358 z"
         inkscape:connector-curvature="0"
         sodipodi:nodetypes="cccccccccc" />
    </a>
    <text
       xml:space="preserve"
       style="font-style:normal;font-variant:normal;font-weight:normal;font-stretch:normal;font-size:8.93011475px;line-height:100%;font-family:Cretan;-inkscape-font-specification:Cretan;letter-spacing:0px;word-spacing:0px;fill:#000000;fill-opacity:1;stroke:none;stroke-width:1px;stroke-linecap:butt;stroke-linejoin:miter;stroke-opacity:1"
       x="621.66235"
       y="315.71838"
       id="text4404-3-1-1"
       sodipodi:linespacing="100%"
       transform="scale(0.8035825,1.2444273)"><tspan
         sodipodi:role="line"
         x="621.66235"
         y="315.71838"
         style="font-style:normal;font-variant:normal;font-weight:normal;font-stretch:normal;line-height:100%;font-family:Cretan;-inkscape-font-specification:Cretan"
         id="tspan4785">I am gonna become so famous I </tspan><tspan
         sodipodi:role="line"
         x="621.66235"
         y="324.6485"
         style="font-style:normal;font-variant:normal;font-weight:normal;font-stretch:normal;line-height:100%;font-family:Cretan;-inkscape-font-specification:Cretan"
         id="tspan4789">will have my own image one day!</tspan></text>
  </g>
</svg>
