<?xml version="1.0" encoding="UTF-8" standalone="no"?>
<svg
   xmlns:dc="http://purl.org/dc/elements/1.1/"
   xmlns:cc="http://creativecommons.org/ns#"
   xmlns:rdf="http://www.w3.org/1999/02/22-rdf-syntax-ns#"
   xmlns:svg="http://www.w3.org/2000/svg"
   xmlns="http://www.w3.org/2000/svg"
   xmlns:sodipodi="http://sodipodi.sourceforge.net/DTD/sodipodi-0.dtd"
   xmlns:inkscape="http://www.inkscape.org/namespaces/inkscape"
   width="24"
   height="24"
   fill-rule="evenodd"
   clip-rule="evenodd"
   id="svg2"
   version="1.1"
   inkscape:version="0.91 r13725"
   sodipodi:docname="book1.svg">
  <metadata
     id="metadata10">
    <rdf:RDF>
      <cc:Work
         rdf:about="">
        <dc:format>image/svg+xml</dc:format>
        <dc:type
           rdf:resource="http://purl.org/dc/dcmitype/StillImage" />
      </cc:Work>
    </rdf:RDF>
  </metadata>
  <defs
     id="defs8" />
  <sodipodi:namedview
     pagecolor="#ffffff"
     bordercolor="#666666"
     borderopacity="1"
     objecttolerance="10"
     gridtolerance="10"
     guidetolerance="10"
     inkscape:pageopacity="0"
     inkscape:pageshadow="2"
     inkscape:window-width="779"
     inkscape:window-height="480"
     id="namedview6"
     showgrid="false"
     inkscape:zoom="9.8333333"
     inkscape:cx="0.96610169"
     inkscape:cy="12"
     inkscape:window-x="0"
     inkscape:window-y="27"
     inkscape:window-maximized="0"
     inkscape:current-layer="svg2" />
  <path
     d="M 15.517,24 3.871,24 C 4.393,20.965 4.768,17.838 3.449,15.972 1.783,13.615 1.019,11.23 1,9.089 0.955,3.899 5.231,-0.025 11.203,0 c 7.236,0.03 9.328,6.156 9.773,7.943 0.34,1.369 -0.898,1.869 -0.166,2.702 0.596,0.679 1.035,1.364 1.789,2.177 0.292,0.315 0.405,0.646 0.401,0.943 -0.006,0.434 -0.291,0.798 -0.748,0.958 -0.429,0.15 -0.76,0.32 -1.215,0.443 -0.145,1.16 -0.521,2.572 -0.798,3.557 -0.737,2.62 -2.896,1.059 -3.881,2.607 -0.426,0.668 -0.64,1.738 -0.841,2.67 z M 11.673,5 10.327,5 C 10.084,5.681 10.015,6.122 9.485,6.341 8.955,6.561 8.597,6.3 7.94,5.988 L 6.988,6.94 C 7.299,7.594 7.561,7.955 7.341,8.485 7.122,9.015 6.681,9.084 6,9.326 l 0,1.347 c 0.68,0.242 1.122,0.312 1.341,0.842 0.222,0.534 -0.047,0.902 -0.353,1.544 l 0.952,0.952 c 0.652,-0.309 1.015,-0.573 1.545,-0.353 l 0,0.001 c 0.529,0.219 0.599,0.657 0.842,1.341 l 1.346,0 c 0.243,-0.682 0.313,-1.121 0.845,-1.343 l 10e-4,0 c 0.526,-0.219 0.883,0.042 1.541,0.354 l 0.952,-0.952 c -0.31,-0.651 -0.573,-1.014 -0.354,-1.544 0.219,-0.529 0.662,-0.6 1.342,-0.842 L 16,9.326 C 15.312,9.082 14.877,9.013 14.659,8.485 14.439,7.955 14.7,7.595 15.012,6.94 L 14.06,5.988 C 13.409,6.298 13.046,6.561 12.515,6.341 11.986,6.122 11.917,5.684 11.673,5 Z M 11,11.667 C 10.08,11.667 9.333,10.92 9.333,10 9.333,9.079 10.08,8.333 11,8.333 c 0.92,0 1.667,0.746 1.667,1.667 0,0.92 -0.747,1.667 -1.667,1.667 z"
     id="path4"
     inkscape:connector-curvature="0"
     inkscape:transform-center-x="-10.881356"
     inkscape:transform-center-y="-1.5254237"
     style="fill:#ffffff" />
</svg>
