<?xml version="1.0" encoding="UTF-8" standalone="no"?>
<svg
   xmlns:dc="http://purl.org/dc/elements/1.1/"
   xmlns:cc="http://creativecommons.org/ns#"
   xmlns:rdf="http://www.w3.org/1999/02/22-rdf-syntax-ns#"
   xmlns:svg="http://www.w3.org/2000/svg"
   xmlns="http://www.w3.org/2000/svg"
   xmlns:sodipodi="http://sodipodi.sourceforge.net/DTD/sodipodi-0.dtd"
   xmlns:inkscape="http://www.inkscape.org/namespaces/inkscape"
   width="24"
   height="24"
   viewBox="0 0 24 24"
   id="svg2"
   version="1.1"
   inkscape:version="0.91 r13725"
   sodipodi:docname="project.svg">
  <metadata
     id="metadata10">
    <rdf:RDF>
      <cc:Work
         rdf:about="">
        <dc:format>image/svg+xml</dc:format>
        <dc:type
           rdf:resource="http://purl.org/dc/dcmitype/StillImage" />
      </cc:Work>
    </rdf:RDF>
  </metadata>
  <defs
     id="defs8" />
  <sodipodi:namedview
     pagecolor="#ffffff"
     bordercolor="#666666"
     borderopacity="1"
     objecttolerance="10"
     gridtolerance="10"
     guidetolerance="10"
     inkscape:pageopacity="0"
     inkscape:pageshadow="2"
     inkscape:window-width="1920"
     inkscape:window-height="1023"
     id="namedview6"
     showgrid="false"
     inkscape:zoom="27.812867"
     inkscape:cx="5.7865306"
     inkscape:cy="13.486232"
     inkscape:window-x="0"
     inkscape:window-y="27"
     inkscape:window-maximized="1"
     inkscape:current-layer="svg2" />
  <path
     d="M 19.0072,18.7984 C 17.1336,15.868 14.5472,13.232 14.4128,9.6 L 12.8,9.6 c 0.1384,4.1696 2.8096,6.8312 4.7624,9.8848 C 17.6768,19.7264 17.508,20 17.2608,20 l -1.0112,0 -3.7872,-5.6 -2.816,0 c 0.6984,-1.332 1.48,-2.7312 1.5488,-4.8 l -1.608,0 C 9.452,13.2344 6.8504,15.8912 4.9928,18.7984 4.8608,19.076 4.8,19.364 4.8,19.644 4.8,20.6704 5.6184,21.6 6.7384,21.6 l 10.5224,0 c 1.12,0 1.9392,-0.9296 1.9392,-1.9568 0,-0.28 -0.0608,-0.5672 -0.1928,-0.8448 z M 15.2,6.4 C 15.2,7.284 14.4832,8 13.6,8 12.7168,8 12,7.284 12,6.4 c 0,-0.884 0.7168,-1.6 1.6,-1.6 0.8832,0 1.6,0.716 1.6,1.6 z m -4,-1.2 C 11.2,5.8632 10.6624,6.4 10,6.4 9.3376,6.4 8.8,5.8632 8.8,5.2 8.8,4.5368 9.3376,4 10,4 c 0.6624,0 1.2,0.5368 1.2,1.2 z m 0,2.8 c 0,0.4416 -0.3576,0.8 -0.8,0.8 C 9.9576,8.8 9.6,8.4416 9.6,8 c 0,-0.4416 0.3576,-0.8 0.8,-0.8 0.4424,0 0.8,0.3584 0.8,0.8 z M 13.6,3.2 C 13.6,3.6416 13.2424,4 12.8,4 12.3576,4 12,3.6416 12,3.2 c 0,-0.4416 0.3576,-0.8 0.8,-0.8 0.4424,0 0.8,0.3584 0.8,0.8 z"
     id="path4"
     style="fill:#ffffff"
     inkscape:connector-curvature="0" />
</svg>
